<?xml version="1.0" standalone="no"?>
<!DOCTYPE svg PUBLIC "-//W3C//DTD SVG 20010904//EN"
 "http://www.w3.org/TR/2001/REC-SVG-20010904/DTD/svg10.dtd">
<svg version="1.0" xmlns="http://www.w3.org/2000/svg"
 viewBox="0 0 2528 1684" preserveAspectRatio="xMidYMid meet">
<metadata>
Created by potrace 1.16, written by Peter Selinger 2001-2019
</metadata>
<g transform="translate(0,1684) scale(0.1,-0.1)"
fill="currentColor" stroke="none">
<path d="M12115 16710 c-822 -51 -1722 -365 -2444 -853 -454 -306 -861 -728
-1208 -1252 -303 -457 -570 -1101 -659 -1590 -30 -163 -34 -194 -50 -365 -25
-280 -7 -537 57 -810 26 -116 37 -139 67 -147 55 -14 57 -7 58 248 0 192 4
261 23 384 21 139 74 372 87 385 4 3 3 -20 0 -50 -3 -30 -8 -166 -12 -301 -7
-249 0 -362 32 -588 73 -501 270 -928 548 -1189 71 -66 102 -80 135 -62 33 17
27 64 -18 135 -39 61 -74 135 -68 141 1 2 26 -32 54 -74 28 -42 83 -114 122
-159 67 -77 71 -86 71 -130 0 -176 94 -437 217 -604 66 -90 166 -193 248 -254
100 -74 97 -68 68 -155 -33 -101 -40 -206 -19 -290 37 -145 110 -244 222 -301
62 -31 76 -34 153 -34 74 0 94 4 143 28 97 47 184 164 204 271 l7 39 51 -54
c205 -215 458 -349 901 -478 145 -42 559 -120 720 -136 82 -8 128 -16 123 -20
-2 -2 -39 -11 -83 -20 -69 -15 -241 -69 -370 -118 -22 -9 -123 -45 -225 -80
-378 -131 -533 -226 -698 -430 -121 -149 -204 -287 -412 -682 -143 -271 -277
-490 -470 -769 -95 -136 -110 -174 -91 -235 19 -64 112 -190 219 -296 l102
-102 -45 -97 c-122 -260 -216 -523 -294 -816 -36 -136 -151 -701 -151 -741 0
-4 -39 -61 -87 -126 -297 -405 -440 -615 -480 -700 -27 -58 -39 -120 -48 -249
-3 -49 -8 -107 -10 -129 -2 -22 -7 -101 -11 -176 -5 -109 -3 -147 9 -190 22
-73 69 -119 130 -126 66 -8 110 11 161 70 39 44 46 48 51 31 23 -71 64 -163
86 -194 45 -62 86 -85 150 -85 68 0 115 31 144 94 l18 42 26 -24 c48 -44 78
-58 129 -59 62 0 100 21 135 74 27 41 44 142 34 195 -4 20 1 31 18 45 13 10
26 27 30 37 5 16 9 16 62 -11 31 -15 68 -28 83 -28 32 0 33 -1 55 -151 32
-217 121 -605 222 -974 114 -414 340 -1103 379 -1153 36 -46 82 -66 215 -96
237 -53 531 -76 899 -71 358 6 611 33 845 91 116 29 155 49 174 90 15 31 12
105 -24 614 -8 107 -16 230 -18 273 -4 78 5 110 17 61 6 -24 86 -217 253 -614
36 -85 81 -193 100 -240 94 -230 120 -251 373 -299 187 -35 334 -46 605 -44
277 1 439 15 695 59 288 49 464 107 520 171 28 32 30 38 30 121 0 162 -20 477
-35 554 -9 42 -38 134 -66 204 -75 191 -75 187 -50 430 25 231 46 496 58 716
10 174 10 707 0 765 -6 38 -5 42 21 51 45 16 109 79 136 134 20 41 26 67 26
120 0 68 -29 224 -56 300 l-14 40 51 56 c63 71 128 200 160 316 l24 89 100 91
c111 101 336 324 406 401 229 254 411 550 460 745 45 177 5 357 -131 601 l-32
57 35 48 c67 94 95 231 63 309 -8 19 -43 65 -78 103 -35 37 -101 111 -147 163
-46 52 -114 126 -150 164 -68 71 -222 241 -257 283 -10 13 -32 38 -48 55 -42
47 -274 332 -413 508 -207 263 -355 387 -568 476 -33 14 -78 33 -100 43 -22
10 -119 49 -215 88 -96 38 -231 93 -300 122 -267 113 -227 103 -401 101 l-157
-2 -11 32 c-19 54 -14 69 26 85 49 21 105 12 197 -32 121 -56 142 -49 271 102
44 52 83 94 86 94 3 0 2 -18 -4 -39 -13 -47 -1 -66 44 -76 34 -8 44 -2 139 75
122 97 275 254 366 375 31 42 58 74 60 72 7 -6 -16 -136 -35 -192 -20 -63 -16
-85 21 -108 34 -22 102 26 188 132 19 24 41 49 47 56 22 23 109 172 143 245
19 38 36 70 39 70 3 0 20 -23 36 -52 40 -69 124 -130 209 -153 302 -82 548
247 450 600 -9 33 -18 69 -21 81 -4 16 14 36 84 95 276 231 436 476 493 755
11 53 20 112 20 132 0 38 69 262 81 262 4 0 5 -9 2 -19 -5 -19 27 -61 47 -61
30 0 60 54 103 191 99 308 137 547 140 860 0 104 4 189 7 189 9 0 28 -114 47
-284 16 -145 20 -159 40 -169 12 -5 33 -7 46 -3 31 7 41 35 62 181 50 335 39
704 -29 1034 -121 583 -339 1129 -654 1636 -205 329 -373 548 -581 755 -449
446 -1055 775 -1536 831 -97 11 -395 7 -440 -6 -15 -5 -38 7 -85 45 -242 194
-638 333 -1090 384 -171 20 -447 27 -615 16z m643 -135 c428 -59 759 -179
1001 -361 l85 -64 210 6 c172 6 231 4 321 -10 588 -91 1281 -546 1722 -1131
494 -654 868 -1542 943 -2238 13 -126 25 -404 16 -396 -4 3 -22 62 -41 130
-38 137 -65 219 -118 354 -19 50 -58 176 -87 280 -162 595 -377 1081 -662
1492 -44 65 -92 130 -106 146 -34 36 -78 37 -94 2 -13 -28 -17 -20 133 -242
117 -173 164 -253 248 -420 241 -483 396 -968 472 -1482 27 -179 37 -597 19
-778 -12 -123 -36 -282 -43 -290 -2 -2 -7 65 -10 149 -10 240 -43 432 -117
681 -99 338 -247 648 -466 978 -57 86 -110 173 -118 195 -57 161 -239 502
-282 531 -23 15 -67 -3 -72 -29 -2 -10 25 -68 59 -130 116 -209 240 -491 314
-713 100 -300 165 -676 165 -944 -1 -154 -16 -376 -28 -397 -6 -10 -16 41 -31
148 -12 90 -36 224 -52 298 -36 166 -128 502 -140 515 -5 5 -9 18 -9 30 0 11
-9 35 -20 53 -15 24 -27 32 -48 32 -57 0 -62 -25 -32 -152 27 -113 36 -279 28
-488 -16 -445 -145 -911 -336 -1224 -39 -62 -53 -62 -27 1 34 80 97 272 121
368 67 270 115 692 84 730 -18 22 -67 19 -80 -4 -5 -11 -10 -47 -10 -80 0 -70
-44 -403 -66 -506 -41 -184 -126 -430 -199 -575 -55 -111 -179 -293 -242 -358
-30 -31 -52 -48 -48 -37 4 11 24 88 46 170 89 345 130 759 99 1022 -9 81 -9
84 31 195 135 378 155 745 65 1183 -32 156 -82 350 -103 398 -15 34 -20 38
-47 35 -52 -5 -54 -35 -13 -189 20 -74 48 -188 62 -254 90 -414 69 -777 -64
-1115 -42 -109 -128 -271 -146 -277 -7 -2 -11 60 -11 179 -2 303 -53 666 -131
941 -39 137 -136 409 -183 512 -32 70 -58 146 -96 270 -28 97 -96 281 -120
326 -21 42 -50 54 -80 34 -30 -20 -31 -48 0 -116 28 -64 86 -235 114 -334 63
-224 99 -603 82 -878 -14 -238 -16 -241 -57 -110 -157 497 -238 704 -416 1073
-106 217 -269 509 -395 704 l-64 98 11 62 c51 296 64 693 24 739 -20 21 -41
22 -65 0 -16 -14 -18 -34 -18 -167 0 -667 -235 -1518 -565 -2051 -74 -120
-204 -300 -211 -293 -2 3 12 49 32 104 140 384 204 617 268 974 19 106 24 137
36 230 5 41 12 93 15 115 22 164 45 377 45 417 0 38 -4 50 -21 59 -45 24 -89
-29 -89 -107 0 -34 -79 -340 -122 -474 -135 -420 -382 -924 -607 -1241 -81
-113 -193 -244 -285 -330 -78 -74 -246 -203 -246 -190 0 4 26 75 58 157 132
336 240 699 351 1179 29 125 59 221 114 361 125 316 140 394 78 402 -32 5 -57
-22 -71 -76 -56 -223 -378 -921 -581 -1262 -41 -69 -101 -169 -132 -222 -85
-145 -342 -521 -390 -573 -37 -40 74 545 143 755 29 85 107 341 119 383 8 33
7 41 -10 58 -10 10 -28 19 -38 19 -22 0 -66 -50 -98 -112 -13 -24 -93 -176
-179 -338 -86 -162 -199 -380 -250 -485 -52 -104 -94 -182 -94 -172 0 33 49
243 89 378 68 230 145 425 205 514 163 244 299 533 282 600 -8 30 -51 44 -71
24 -7 -8 -25 -45 -40 -84 -77 -197 -294 -550 -551 -895 -179 -240 -269 -364
-310 -422 -35 -52 -43 -57 -76 -58 -100 -1 -296 -46 -412 -95 -18 -8 -18 -4
-12 71 18 208 100 577 171 770 90 247 223 520 321 665 39 57 28 99 -28 99 -21
0 -34 -10 -56 -42 -139 -203 -279 -498 -372 -783 -48 -150 -52 -159 -101 -240
-65 -109 -166 -399 -220 -631 -21 -93 -22 -95 -68 -126 -100 -68 -123 -113
-75 -145 25 -16 28 -16 57 0 16 10 31 16 34 14 2 -2 -2 -38 -9 -78 -8 -46 -12
-173 -13 -331 0 -142 -1 -258 -2 -258 -2 0 -21 36 -43 80 -90 179 -147 375
-180 615 -13 99 -13 352 0 465 25 206 25 196 0 213 -26 18 -66 6 -74 -22 -50
-188 -50 -602 -1 -846 8 -39 17 -156 20 -265 2 -107 9 -222 14 -255 25 -161
26 -160 -32 -44 -201 403 -276 1006 -196 1589 56 414 186 852 374 1260 32 69
62 129 66 135 13 13 11 59 -3 73 -21 21 -64 14 -82 -13 -51 -78 -199 -432
-271 -648 -198 -595 -263 -1248 -179 -1792 57 -365 191 -706 361 -916 43 -54
57 -81 74 -144 42 -162 147 -441 181 -482 7 -9 7 -13 0 -13 -6 0 -51 33 -99
73 -247 206 -468 525 -592 855 -27 70 -55 152 -64 182 -45 158 -97 445 -97
539 0 25 -7 44 -20 56 -27 24 -68 13 -76 -21 -17 -68 24 -349 80 -556 43 -157
102 -305 206 -521 45 -93 80 -173 78 -179 -2 -6 -27 19 -56 55 -185 236 -333
567 -406 912 -95 442 -101 815 -21 1263 16 90 74 320 99 391 28 78 17 121 -30
121 -29 0 -40 -16 -69 -99 -69 -203 -125 -480 -150 -741 -4 -36 -15 -92 -26
-125 -26 -82 -56 -269 -64 -390 -3 -55 -8 -128 -10 -162 -7 -92 13 -445 34
-611 19 -144 66 -367 96 -452 24 -68 18 -76 -18 -24 -111 162 -208 408 -263
663 -55 252 -67 369 -68 646 -1 343 27 589 103 900 28 113 108 363 145 449 9
21 16 46 16 56 0 25 -35 52 -62 48 -26 -3 -71 -84 -143 -258 -24 -58 -57 -134
-73 -170 -93 -203 -201 -526 -247 -736 l-23 -109 -1 66 c-1 77 29 328 59 494
32 174 64 298 131 497 257 772 735 1489 1339 2010 379 326 897 623 1416 812
483 175 911 269 1324 290 144 8 520 -4 628 -19z m969 -2337 c28 -46 59 -99 70
-118 11 -19 51 -89 88 -154 84 -148 226 -437 284 -576 24 -58 52 -124 63 -148
59 -135 210 -576 198 -580 -5 -2 -22 4 -39 12 -54 28 -300 95 -408 111 -135
20 -322 20 -458 0 -307 -46 -614 -236 -500 -311 30 -19 60 -11 179 48 101 51
263 104 374 123 101 18 333 20 443 5 159 -22 434 -103 449 -132 9 -16 47 -204
56 -276 7 -53 36 -92 70 -92 23 0 51 40 62 88 64 298 77 401 77 629 0 106 3
193 6 193 4 0 12 -21 19 -47 7 -27 19 -67 26 -90 17 -52 57 -230 78 -342 40
-209 50 -342 51 -653 0 -294 1 -308 20 -322 48 -37 109 -2 182 107 14 20 30
37 36 37 20 0 -16 -487 -49 -664 -29 -155 -64 -289 -120 -458 -53 -161 -55
-170 -40 -194 13 -18 25 -24 54 -24 31 0 50 10 103 52 80 64 154 139 209 212
23 31 44 56 46 56 1 0 14 -4 27 -9 18 -7 30 -5 46 5 51 36 241 297 302 414 12
25 50 108 84 185 75 172 85 180 235 180 107 0 153 -16 227 -80 163 -139 225
-462 142 -732 -52 -167 -161 -349 -299 -497 -57 -62 -198 -176 -216 -176 -8 0
-31 15 -51 34 -48 43 -126 82 -179 91 -85 13 -182 -35 -211 -104 -19 -46 -12
-114 17 -153 12 -16 20 -31 18 -34 -11 -10 -142 21 -219 52 -48 19 -98 34
-113 34 -27 0 -27 0 -156 -181 -289 -407 -644 -654 -1330 -927 -248 -99 -663
-218 -915 -263 -113 -20 -161 -23 -375 -23 -325 1 -673 40 -1055 119 -409 84
-773 244 -967 424 -143 133 -178 199 -294 553 -48 145 -104 310 -125 367 -35
94 -37 105 -24 124 8 12 15 28 15 35 0 8 -30 62 -67 120 -125 200 -219 425
-292 702 -38 147 -68 289 -76 371 -8 73 -5 71 53 -31 17 -30 56 -85 87 -122
46 -56 61 -68 85 -68 49 0 61 31 48 115 -6 39 -11 198 -12 355 -1 256 2 298
22 415 13 71 24 130 25 131 1 0 18 10 38 22 20 12 39 22 43 22 3 0 6 -28 6
-63 0 -146 44 -418 92 -570 23 -74 46 -95 91 -83 18 4 29 18 40 48 94 267 168
442 238 557 15 26 56 95 90 155 l64 108 80 -6 c44 -4 105 -12 135 -18 l55 -11
-3 -122 c-3 -103 -1 -125 13 -139 42 -42 88 -8 125 92 38 102 120 280 241 525
137 278 161 315 124 192 -23 -75 -63 -306 -74 -430 -24 -256 -24 -274 -7 -300
25 -38 66 -33 110 13 160 163 510 698 731 1117 59 112 58 86 -8 -135 -84 -283
-191 -588 -261 -745 -49 -108 -76 -175 -76 -186 0 -23 33 -49 62 -49 39 0 72
18 205 112 350 247 600 562 866 1093 38 77 161 361 181 419 4 10 9 16 12 13 5
-5 -51 -281 -61 -296 -2 -4 -13 -43 -25 -87 -63 -239 -179 -551 -287 -772 -35
-73 -63 -143 -61 -155 4 -31 49 -45 84 -27 47 26 206 183 287 285 295 372 511
838 658 1422 24 94 46 170 49 168 4 -2 29 -41 57 -87z m2625 -1363 c42 -83
104 -222 118 -265 5 -14 23 -63 40 -110 28 -78 71 -231 98 -355 35 -156 46
-249 46 -395 0 -140 -3 -167 -32 -285 -49 -202 -67 -265 -73 -265 -3 0 -13 27
-23 59 -33 111 -133 238 -244 311 l-23 15 30 120 c50 199 65 327 65 550 0 226
-18 402 -64 625 -16 80 -30 150 -30 155 0 13 41 -58 92 -160z m-5472 -72 c-16
-49 -38 -142 -50 -208 -29 -157 -26 -148 -53 -141 -12 4 -55 12 -94 18 -40 7
-73 15 -73 18 0 3 38 57 85 120 131 178 171 233 186 258 27 43 27 21 -1 -65z
m-975 -370 c-4 -54 -13 -101 -19 -105 -20 -14 -38 -9 -33 10 3 9 16 56 29 104
12 49 25 88 26 88 2 0 1 -44 -3 -97z m475 -90 c0 -5 -9 -19 -20 -33 -11 -14
-20 -28 -20 -32 0 -3 -21 -41 -46 -84 -67 -114 -157 -296 -195 -396 -18 -49
-35 -88 -39 -88 -14 0 -59 365 -60 486 l0 61 73 26 c122 45 307 80 307 60z
m5678 -165 c38 -222 50 -323 54 -483 l1 -70 -34 3 c-19 2 -64 -2 -99 -7 -35
-6 -65 -9 -66 -8 -2 1 6 34 17 72 44 155 89 436 89 550 0 36 4 65 8 65 5 0 18
-55 30 -122z m-7559 -285 c51 -350 218 -781 407 -1048 l43 -61 -17 -59 c-8
-33 -17 -62 -19 -64 -10 -14 -174 229 -218 322 -39 83 -80 190 -141 372 -25
71 -51 137 -60 146 -12 14 -16 61 -21 255 -6 248 3 294 26 137z m594 -1273
l46 -50 -11 -80 c-17 -111 0 -225 36 -256 47 -41 93 -3 75 61 -12 40 -11 175
0 175 5 0 32 -14 60 -31 47 -29 51 -30 79 -17 28 15 30 14 98 -46 38 -34 82
-71 98 -84 l29 -22 -24 -48 c-33 -65 -34 -197 -2 -257 46 -88 158 -163 275
-186 l58 -12 36 -116 c19 -64 40 -129 45 -145 16 -51 13 -56 -35 -56 l-44 0
15 43 c27 77 -3 149 -77 187 -72 37 -183 17 -265 -46 l-46 -35 -57 38 c-73 48
-195 169 -255 255 -65 93 -131 227 -163 333 -24 79 -27 112 -32 268 -2 110 -1
177 5 177 6 0 31 -23 56 -50z m719 -577 c27 -70 50 -132 51 -138 3 -14 -30 -7
-89 20 -61 27 -104 79 -111 134 -5 34 10 130 24 153 2 5 20 -3 40 -17 32 -21
43 -41 85 -152z m5894 -28 c52 -21 111 -87 145 -159 117 -252 -3 -547 -223
-546 -139 1 -258 143 -258 309 0 32 7 74 14 93 l15 35 79 -5 c90 -5 175 16
192 48 24 44 12 75 -42 116 -39 29 -54 47 -56 68 -6 52 60 72 134 41z m-454
-225 c36 -13 36 -14 23 -41 -8 -15 -20 -60 -26 -101 -17 -109 -83 -265 -166
-393 -41 -64 -62 -90 -66 -84 -2 2 0 47 5 99 7 64 6 126 -1 188 l-11 94 48 66
c27 37 68 95 92 130 24 35 48 61 54 59 6 -2 28 -10 48 -17z m-5441 -220 c28
-15 24 -35 -17 -79 -29 -33 -35 -46 -32 -77 5 -62 39 -79 159 -79 l99 0 11
-54 c51 -245 -148 -444 -342 -343 -105 55 -165 179 -157 327 5 94 32 161 95
234 63 74 130 100 184 71z m5030 -228 c-41 -80 -149 -212 -280 -342 l-136
-134 -7 53 c-3 30 -16 66 -27 82 -12 16 -18 29 -13 29 26 0 365 246 432 314
46 46 55 45 31 -2z m-591 -392 c0 -12 -147 -195 -187 -233 l-30 -27 -55 24
c-30 14 -72 28 -92 31 -20 4 -38 11 -41 15 -3 4 39 26 93 49 53 23 144 66 202
95 58 29 106 54 108 55 1 0 2 -3 2 -9z m-605 -508 c19 -18 35 -35 35 -39 0 -7
-71 -102 -114 -153 -214 -250 -660 -566 -861 -610 -27 -6 -70 -22 -94 -36
l-44 -24 -35 27 c-117 89 -256 253 -318 376 -49 95 -102 276 -88 298 3 5 14 9
25 9 30 0 76 51 88 98 l11 40 188 1 c187 0 355 18 514 55 119 28 504 142 588
174 25 9 25 9 47 -87 20 -83 28 -101 58 -129z m580 -127 c66 -29 224 -95 350
-145 217 -87 361 -152 448 -201 l38 -21 -58 -62 c-153 -160 -274 -360 -359
-594 -54 -148 -121 -408 -130 -503 -6 -60 -5 -67 15 -81 26 -18 58 -13 70 11
4 9 13 50 20 91 50 302 161 596 310 821 71 107 184 239 205 239 25 0 193 -189
333 -375 33 -44 87 -112 119 -151 32 -39 97 -118 144 -175 114 -139 159 -190
244 -279 40 -41 117 -124 171 -185 55 -60 102 -112 105 -115 51 -51 140 -153
140 -160 0 -6 -15 -10 -34 -10 -139 0 -562 -217 -791 -404 -160 -131 -375
-364 -470 -508 -33 -49 -33 -50 -46 -26 -19 36 -132 236 -171 303 -91 157
-123 215 -227 415 -105 203 -144 260 -176 260 -21 0 -45 -29 -45 -56 0 -47
189 -416 373 -727 38 -65 69 -128 70 -140 0 -12 -12 -98 -27 -191 -14 -92 -24
-177 -20 -188 3 -11 35 -65 70 -121 35 -56 64 -108 64 -116 0 -18 -61 -118
-110 -180 -42 -53 -40 -52 -280 -106 -244 -54 -421 -126 -597 -240 -141 -93
-299 -258 -360 -379 -88 -174 48 -301 240 -222 31 13 57 23 57 22 0 -13 -93
-201 -102 -207 -7 -5 -52 -9 -99 -9 -137 0 -486 -36 -669 -70 -636 -115 -679
-122 -970 -150 -564 -56 -985 -15 -1451 140 -293 97 -568 233 -614 304 -15 23
-15 30 11 113 35 115 86 243 172 428 38 83 92 200 121 261 71 154 79 215 42
307 -26 66 -5 126 83 237 76 95 96 126 107 163 11 38 22 142 49 452 48 572
112 863 270 1232 66 152 65 183 -7 183 -28 0 -35 -6 -54 -42 l-22 -43 -9 30
c-4 17 -27 157 -50 313 l-41 283 44 46 c63 65 182 152 276 201 89 46 274 120
368 146 33 10 126 42 207 72 81 30 150 54 153 54 3 0 5 -40 5 -89 0 -152 59
-298 175 -434 71 -83 146 -138 256 -186 l74 -32 0 -77 c0 -67 4 -86 32 -143
51 -102 222 -269 277 -269 36 0 145 71 225 147 92 86 132 153 140 237 l6 60
125 36 c248 72 497 204 680 360 30 26 66 55 79 66 54 44 173 191 200 248 16
33 37 91 47 129 20 79 4 79 179 2z m-367 29 l70 -16 -8 -29 c-20 -68 -69 -139
-160 -229 -216 -217 -498 -383 -777 -459 -40 -11 -73 -17 -73 -13 0 4 25 20
56 36 75 39 263 166 365 246 162 126 439 423 439 469 0 14 5 14 88 -5z m-1832
-152 c33 -161 138 -361 265 -505 70 -80 45 -84 -101 -16 -134 63 -225 154
-289 287 -42 87 -71 245 -47 259 17 11 129 41 145 40 9 -1 19 -25 27 -65z
m-1395 -832 c33 -232 53 -340 69 -371 9 -15 1 -47 -34 -147 -110 -316 -162
-605 -196 -1072 -13 -178 -19 -240 -26 -240 -2 0 -41 19 -86 41 -219 110 -406
255 -546 423 -40 49 -81 104 -89 122 -16 33 -16 34 22 96 21 35 66 101 99 148
160 225 259 391 486 821 105 198 226 406 249 430 15 15 16 14 19 -10 2 -14 17
-123 33 -241z m1829 163 c13 -9 37 -32 53 -50 16 -18 37 -33 47 -33 9 0 40 18
68 40 90 72 172 52 172 -42 0 -21 -9 -56 -19 -77 -24 -46 -108 -133 -178 -183
l-51 -36 -36 24 c-43 29 -129 134 -156 190 -22 44 -26 114 -9 145 20 38 71 48
109 22z m3977 -1253 c-5 -37 -40 -100 -55 -100 -9 1 -85 110 -80 115 7 7 81
23 112 24 28 1 28 0 23 -39z m-226 -72 c105 -143 174 -252 218 -341 67 -139
82 -188 88 -289 5 -76 2 -97 -22 -170 -98 -300 -364 -640 -848 -1083 l-98 -90
-31 -105 c-41 -145 -97 -248 -165 -310 -64 -57 -170 -113 -265 -139 -113 -32
-158 -72 -280 -246 -86 -121 -211 -236 -240 -219 -4 3 -8 25 -8 49 0 83 75
245 200 430 42 64 60 99 60 122 0 37 -28 58 -65 49 -22 -6 -114 -102 -324
-340 -121 -137 -207 -206 -256 -206 -58 0 -59 37 -6 146 51 104 164 261 295
408 87 98 106 124 106 150 0 37 -15 56 -45 56 -25 0 -176 -151 -271 -270 -59
-75 -169 -244 -215 -330 -22 -41 -28 -45 -67 -48 -85 -6 -91 28 -29 173 76
179 190 355 328 507 75 83 86 115 47 142 -12 9 -28 16 -36 16 -7 0 -52 -37
-100 -82 -102 -97 -272 -228 -342 -263 -54 -27 -111 -33 -128 -12 -15 17 11
68 85 164 104 137 216 225 412 323 120 60 232 96 426 139 205 46 219 50 259
83 61 50 241 341 438 709 55 101 121 201 181 271 66 78 80 103 72 128 -16 49
-80 49 -115 0 -19 -27 -60 -42 -60 -22 0 12 176 180 255 244 39 30 111 82 160
114 95 62 321 183 342 184 7 0 26 -19 44 -42z m-6084 -634 c58 -36 152 -88
209 -114 103 -49 103 -49 94 -77 -6 -15 -44 -72 -85 -127 -105 -140 -118 -170
-112 -259 3 -40 10 -91 15 -115 12 -53 -4 -101 -103 -313 -165 -352 -255 -582
-270 -689 -9 -67 23 -122 107 -185 62 -46 65 -50 45 -60 -18 -8 -23 -23 -30
-80 -17 -153 -60 -224 -196 -325 -64 -48 -96 -96 -126 -190 -33 -103 -84 -197
-138 -254 -55 -58 -85 -69 -128 -46 -27 15 -25 83 6 223 53 238 72 456 43 485
-17 17 -63 15 -78 -3 -7 -8 -18 -67 -26 -132 -20 -163 -19 -160 -57 -172 -54
-18 -125 -68 -141 -99 -8 -16 -25 -85 -36 -153 -51 -299 -102 -413 -175 -395
-35 9 -40 65 -26 310 23 394 9 360 325 801 83 116 171 237 196 270 95 124 99
132 125 286 74 429 177 822 292 1119 50 128 153 360 160 360 3 0 52 -30 110
-66z m5214 23 c-1 -4 -22 -43 -47 -87 -44 -75 -49 -80 -80 -80 -19 0 -34 5
-34 10 0 6 4 10 8 10 5 0 13 10 19 23 19 41 105 138 120 135 8 -2 14 -6 14
-11z m-275 -276 c21 -6 56 -11 77 -11 20 0 37 -2 37 -5 0 -17 -136 -243 -143
-238 -5 3 -27 33 -49 67 -40 61 -40 61 -34 136 6 63 9 88 15 119 1 2 14 -10
29 -27 16 -16 46 -35 68 -41z m282 -1775 c22 -93 28 -179 16 -210 -9 -24 -19
-19 -22 10 -4 48 -3 48 -197 104 -84 25 -130 43 -130 51 0 8 16 22 35 32 42
21 250 104 266 106 6 0 20 -41 32 -93z m-5066 -17 c226 -99 458 -173 683 -218
254 -51 400 -64 692 -64 l261 1 22 -97 c41 -177 122 -390 181 -472 11 -16 20
-32 18 -34 -3 -2 -24 5 -49 15 -326 135 -319 133 -345 116 -30 -20 -34 -65 -7
-88 9 -8 143 -66 297 -127 154 -62 289 -118 300 -126 12 -7 35 -41 52 -77 26
-54 219 -555 274 -713 13 -39 18 -99 23 -275 3 -124 10 -288 16 -365 33 -463
41 -648 28 -656 -38 -24 -319 -75 -548 -100 -153 -17 -668 -17 -835 -1 -251
26 -482 68 -519 95 -45 33 -251 666 -424 1302 -57 213 -77 296 -126 547 -76
384 -102 678 -92 1053 5 224 12 315 23 315 3 0 36 -14 75 -31z m3505 -64 c8
-102 65 -155 171 -158 50 -2 57 -5 72 -32 26 -48 75 -75 134 -75 67 1 124 27
214 102 l73 61 -8 -39 c-11 -56 -5 -145 13 -172 22 -34 74 -62 114 -62 77 1
175 72 282 208 27 34 53 62 57 62 4 0 12 -44 19 -97 64 -522 66 -1000 6 -1466
-13 -106 -27 -264 -30 -352 -8 -179 -1 -215 68 -385 45 -110 64 -186 83 -335
18 -148 36 -437 27 -447 -14 -14 -360 -78 -512 -94 -324 -35 -774 -20 -1045
36 -157 32 -153 29 -222 182 -129 284 -440 1052 -682 1688 -168 441 -155 418
-271 477 -49 25 -69 43 -95 85 l-34 53 32 7 c18 3 58 12 90 18 69 14 120 54
138 107 13 40 8 95 -21 217 -21 87 -50 249 -46 253 1 2 81 16 177 32 96 16
248 43 339 60 303 57 664 101 795 98 59 -2 60 -2 62 -32z m1311 -121 c32 -9
60 -19 65 -23 13 -12 34 -345 36 -571 2 -221 -8 -447 -34 -795 -16 -206 -17
-217 -35 -370 -6 -49 -12 -135 -13 -190 -1 -93 2 -107 37 -200 21 -55 46 -118
56 -140 44 -97 58 -199 66 -484 l7 -221 -47 -21 c-26 -11 -49 -19 -51 -17 -1
1 -6 64 -9 138 -15 302 -39 440 -105 622 -27 73 -54 157 -61 187 -17 71 -8
293 19 501 56 432 58 961 5 1448 -7 74 -14 138 -14 143 0 13 14 11 78 -7z
m-5064 -189 c-14 -19 -49 -51 -76 -71 -48 -35 -146 -80 -155 -70 -3 3 1 24 9
48 10 30 28 53 59 77 70 53 112 93 149 140 l35 43 3 -66 c3 -59 0 -70 -24
-101z m2290 90 c3 -31 20 -117 36 -192 17 -75 30 -150 30 -165 0 -36 -44 -64
-114 -73 -28 -3 -63 -8 -78 -11 -24 -5 -30 0 -51 43 -35 69 -74 181 -107 305
l-28 107 41 5 c61 8 251 34 258 35 3 0 9 -24 13 -54z m2996 26 c-15 -29 -30
-35 -30 -13 0 22 8 32 27 32 10 0 11 -5 3 -19z m-6027 -318 c-9 -32 -16 -94
-17 -139 -1 -72 2 -85 27 -122 17 -26 45 -51 76 -66 43 -22 50 -30 60 -70 24
-98 2 -219 -46 -244 -43 -23 -81 34 -143 213 -48 138 -49 159 -20 330 16 93
25 124 41 138 34 28 38 20 22 -40z m752 -98 c29 -39 43 -175 19 -175 -24 0
-67 26 -101 62 -34 36 -93 132 -93 151 0 7 26 24 58 38 l57 26 19 -36 c10 -20
29 -49 41 -66z m-252 -68 c39 -85 42 -97 29 -97 -4 0 -21 26 -36 58 -16 31
-36 65 -44 74 -14 17 -11 48 5 48 4 -1 25 -38 46 -83z m-74 -177 c33 -85 40
-161 20 -219 -29 -83 -122 8 -181 179 l-19 55 23 15 c13 8 39 31 58 50 34 35
36 35 52 18 9 -11 31 -54 47 -98z"/>
<path d="M12445 16349 c-315 -20 -639 -111 -963 -271 -336 -165 -665 -430
-905 -726 -71 -89 -80 -117 -47 -147 33 -30 62 -12 141 87 88 111 264 289 373
378 218 176 569 369 826 454 532 175 1063 166 1440 -25 153 -77 248 -166 311
-291 33 -66 66 -83 99 -53 28 25 25 47 -16 126 -169 320 -667 506 -1259 468z"/>
<path d="M13975 15872 c-109 -28 -142 -52 -131 -97 9 -35 43 -40 119 -16 252
77 558 -4 888 -235 61 -43 141 -106 177 -139 89 -82 106 -91 138 -70 40 26 30
53 -43 122 -207 195 -463 348 -698 419 -121 36 -341 44 -450 16z"/>
<path d="M12900 15864 c-403 -54 -865 -242 -1254 -512 -140 -97 -356 -274
-468 -383 -74 -72 -88 -90 -88 -117 0 -31 21 -52 53 -52 8 0 54 39 103 87 264
256 607 497 920 643 325 153 614 229 895 237 145 5 176 3 248 -15 104 -27 195
-70 253 -122 49 -43 77 -49 102 -24 27 26 18 55 -28 100 -82 78 -223 141 -366
164 -87 13 -241 11 -370 -6z"/>
<path d="M13166 15650 c-269 -42 -633 -258 -883 -523 -131 -140 -193 -224
-193 -262 0 -27 5 -35 28 -43 35 -12 61 0 89 42 53 81 183 224 286 313 345
297 703 430 940 348 26 -9 56 -13 67 -10 23 7 34 38 26 70 -12 49 -223 86
-360 65z"/>
<path d="M13800 15550 c-24 -24 -24 -29 -4 -58 13 -20 24 -22 93 -22 145 0
280 -48 447 -158 233 -154 434 -379 627 -701 71 -118 203 -374 260 -503 31
-70 65 -92 97 -63 11 10 20 24 20 30 0 21 -116 274 -185 405 -175 328 -286
484 -499 696 -271 270 -505 394 -743 394 -80 0 -96 -3 -113 -20z"/>
<path d="M13571 12195 c-134 -30 -250 -76 -340 -138 -109 -75 -241 -224 -241
-273 0 -50 60 -60 88 -15 87 143 249 257 448 317 168 50 439 42 611 -17 88
-30 123 -22 123 28 0 40 -77 72 -240 98 -118 19 -361 19 -449 0z"/>
<path d="M13725 11996 c-299 -47 -528 -218 -670 -498 -53 -106 -63 -148 -40
-171 19 -20 53 -21 75 -4 9 7 37 44 63 82 26 39 60 84 75 100 54 58 122 119
127 114 2 -3 -5 -30 -16 -60 -59 -155 -78 -383 -44 -544 54 -256 178 -456 333
-534 102 -52 296 -65 422 -30 92 25 155 65 221 138 128 143 188 328 189 581 0
144 -19 273 -57 378 -14 40 -23 75 -20 78 21 21 192 -145 242 -236 29 -53 30
-60 29 -170 -1 -96 -5 -130 -29 -205 -41 -132 -41 -140 -12 -160 41 -27 77 -1
119 87 83 170 139 389 119 463 -39 143 -290 394 -486 485 -225 106 -427 139
-640 106z m255 -197 c161 -33 266 -136 329 -326 129 -387 -12 -835 -289 -917
-115 -34 -297 -12 -378 47 -117 84 -214 272 -249 486 -26 162 -1 322 74 477
41 83 99 157 151 193 80 55 215 70 362 40z"/>
<path d="M10555 11839 c-135 -20 -340 -110 -351 -155 -7 -29 11 -54 37 -54 11
0 50 15 87 34 280 139 544 123 778 -48 42 -31 80 -56 83 -56 4 0 15 6 26 13
30 23 11 61 -58 117 -81 65 -204 127 -292 145 -76 16 -215 18 -310 4z"/>
<path d="M10525 11620 c-101 -17 -247 -80 -337 -146 -117 -86 -260 -276 -322
-429 -33 -83 -50 -174 -41 -231 13 -87 140 -305 240 -411 56 -59 95 -70 115
-32 12 22 12 22 -65 162 -71 130 -100 248 -84 345 16 106 103 254 211 359 107
106 147 128 115 66 -59 -114 -86 -299 -68 -469 16 -147 40 -235 101 -359 122
-252 308 -386 538 -385 86 1 142 14 217 51 79 40 137 98 174 173 51 106 64
174 64 341 0 154 -13 244 -52 358 l-19 55 29 6 c39 7 55 47 37 90 -54 135
-231 314 -382 386 -129 62 -336 93 -471 70z m360 -221 c157 -52 260 -173 334
-395 96 -285 77 -574 -47 -706 -82 -88 -243 -122 -372 -78 -74 25 -145 67
-181 107 -136 155 -211 345 -225 566 -11 183 46 377 138 469 24 24 59 49 78
56 51 17 195 7 275 -19z"/>
<path d="M15960 11263 c-79 -34 -161 -114 -219 -213 -96 -162 -96 -227 -1
-377 39 -61 41 -128 6 -188 -28 -47 -62 -66 -161 -91 -59 -14 -78 -25 -117
-63 -25 -26 -50 -59 -54 -75 -18 -74 52 -105 93 -41 30 46 54 60 149 88 103
30 153 68 193 149 24 47 31 74 31 117 -1 69 -15 108 -68 190 -27 41 -42 75
-42 95 1 41 29 102 81 173 115 157 227 195 306 105 29 -32 43 -79 51 -167 6
-60 10 -71 31 -82 31 -15 58 -2 72 35 24 62 -27 236 -87 296 -63 63 -182 85
-264 49z"/>
<path d="M13158 9683 c-169 -147 -380 -239 -624 -273 -234 -32 -512 5 -676 90
-84 43 -109 48 -128 26 -49 -59 95 -145 330 -198 90 -20 132 -23 295 -23 205
1 287 13 459 70 222 73 446 221 446 295 0 28 -22 50 -49 50 -5 0 -29 -17 -53
-37z"/>
<path d="M11750 7124 c-253 -55 -447 -159 -617 -332 -148 -150 -260 -364 -309
-587 -22 -100 -29 -298 -15 -392 39 -252 140 -477 295 -658 231 -269 534 -444
918 -527 90 -19 133 -22 333 -22 202 0 243 2 333 22 392 86 686 260 906 536
61 77 89 132 82 161 -10 39 -39 39 -113 2 -76 -39 -254 -109 -260 -104 -2 2 7
26 19 53 32 69 32 201 1 259 -26 50 -102 122 -138 131 -18 4 -31 19 -46 54
-26 61 -63 96 -125 119 -46 18 -49 21 -55 62 -4 24 -15 69 -26 99 -15 43 -17
65 -11 100 5 25 9 104 10 175 2 196 -25 243 -133 233 -37 -4 -85 -22 -164 -63
l-112 -57 -45 15 c-135 46 -276 64 -393 49 l-70 -9 -70 65 c-123 113 -174 134
-229 91 -52 -41 -111 -195 -122 -320 -6 -59 -12 -76 -48 -124 -50 -69 -54 -62
-55 87 -1 111 7 168 40 277 56 185 210 391 380 507 70 48 85 74 57 102 -16 16
-136 14 -218 -4z m0 -103 c0 -4 -13 -19 -28 -32 -45 -39 -127 -139 -174 -214
-101 -161 -148 -323 -148 -509 0 -112 5 -155 24 -213 7 -21 4 -23 -32 -23
-138 0 -240 -121 -212 -253 9 -46 8 -58 -10 -94 -12 -26 -20 -62 -20 -95 0
-124 126 -242 271 -255 56 -5 58 -7 89 -54 17 -27 45 -58 62 -70 38 -28 136
-68 164 -69 11 0 59 -19 105 -42 67 -34 97 -43 149 -46 61 -3 67 -1 102 28 52
43 66 101 43 178 -7 21 -5 22 44 22 28 0 51 -4 51 -8 0 -5 -7 -24 -17 -42 -28
-57 -29 -122 -2 -170 35 -61 80 -85 159 -84 67 1 108 16 191 71 36 24 37 24
88 8 73 -24 193 -18 243 13 32 20 53 23 170 27 141 4 243 24 356 69 34 13 62
20 62 14 0 -22 -164 -169 -256 -231 -173 -114 -328 -178 -554 -227 -121 -27
-379 -37 -505 -21 -95 13 -327 70 -404 101 -138 54 -302 149 -399 229 -293
244 -450 543 -468 890 -18 349 151 707 435 922 78 60 241 141 336 168 83 23
85 24 85 12z m146 -593 l83 -79 101 8 c136 12 236 1 354 -37 l100 -32 105 55
c122 64 181 83 194 64 5 -6 6 -95 3 -197 -4 -167 -3 -192 16 -254 30 -98 23
-236 -17 -324 -35 -78 -124 -164 -216 -209 -174 -84 -461 -83 -678 4 -169 67
-293 170 -352 290 -32 63 -34 74 -33 168 0 114 13 153 83 245 33 44 41 62 41
98 0 62 38 210 67 259 31 53 34 52 149 -59z m-458 -494 c19 -6 22 -13 22 -63
0 -101 43 -222 103 -288 l20 -23 -36 -35 c-19 -19 -41 -50 -48 -70 -12 -31
-17 -35 -50 -35 -40 0 -111 28 -151 60 -34 26 -63 100 -54 136 4 15 16 40 27
55 23 33 24 48 2 108 -15 44 -15 49 1 83 27 56 101 88 164 72z m1594 -206 c19
-28 25 -44 32 -77 7 -36 30 -60 59 -61 31 0 103 -57 118 -92 21 -49 16 -145
-9 -194 -27 -53 -82 -100 -131 -114 -22 -6 -73 -10 -113 -9 -64 2 -80 -1 -119
-24 -47 -28 -101 -34 -168 -21 -38 8 -38 14 -5 64 31 47 43 122 23 147 -11 12
-11 17 -2 20 30 11 123 98 155 146 48 74 68 119 79 186 l11 59 31 -9 c17 -5
34 -14 39 -21z m-1333 -272 c46 -34 191 -109 261 -136 49 -19 79 -48 92 -91 9
-32 8 -42 -6 -64 -25 -37 -71 -33 -165 15 -42 22 -100 44 -129 50 -133 25
-212 114 -171 193 15 29 50 67 62 67 5 0 30 -15 56 -34z m933 -167 c-8 -54
-107 -165 -180 -200 -129 -63 -224 15 -145 120 39 52 50 58 123 66 36 4 92 15
125 25 73 21 81 20 77 -11z"/>
<path d="M11726 5874 c-20 -19 -20 -28 -2 -62 28 -55 112 -96 191 -96 65 0
115 26 115 59 0 34 -28 47 -73 33 -49 -15 -101 1 -150 47 -42 39 -58 43 -81
19z"/>
<path d="M12590 5753 c-52 -28 -127 -28 -159 1 -23 21 -60 18 -75 -6 -8 -13
-6 -24 10 -45 30 -41 80 -63 143 -63 116 0 216 90 144 128 -13 8 -30 4 -63
-15z"/>
<path d="M12102 5628 c-23 -23 -13 -56 23 -84 l36 -27 34 19 c54 29 58 70 9
93 -33 15 -87 14 -102 -1z"/>
<path d="M11993 6925 c-18 -8 -39 -28 -48 -44 -13 -27 -13 -31 1 -45 20 -20
48 -20 64 -1 31 38 100 3 100 -50 0 -34 22 -54 65 -60 42 -5 62 -23 72 -65 11
-46 22 -53 84 -46 74 9 130 -13 158 -60 15 -24 27 -34 45 -34 69 0 43 102 -39
154 -37 23 -57 28 -105 28 -56 0 -62 2 -75 28 -18 36 -71 80 -95 80 -12 0 -28
17 -45 48 -14 26 -35 53 -46 60 -31 20 -100 23 -136 7z"/>
<path d="M13734 6775 c-31 -14 -84 -68 -84 -86 0 -5 -20 -9 -44 -9 -64 0 -111
-31 -138 -91 -19 -41 -32 -53 -74 -74 -84 -41 -116 -117 -87 -205 31 -92 99
-133 216 -129 48 2 85 -3 112 -14 61 -25 133 -22 191 8 44 23 53 24 92 14 53
-14 119 -6 167 21 75 42 99 87 93 175 -5 78 -36 123 -107 157 -46 21 -50 26
-51 58 -1 52 -40 121 -88 155 -34 23 -54 30 -105 32 -38 1 -74 -3 -93 -12z
m163 -110 c35 -35 36 -37 30 -95 -7 -67 6 -90 51 -90 37 0 96 -42 111 -78 19
-45 -7 -98 -56 -119 -33 -13 -47 -14 -106 -2 -58 10 -73 10 -90 -1 -77 -49
-148 -52 -204 -10 -25 18 -38 21 -65 15 -18 -4 -54 -8 -80 -9 -62 -1 -101 34
-101 89 0 48 28 75 84 82 53 6 69 24 69 75 0 53 31 72 100 63 56 -8 80 4 80
37 0 11 13 33 29 49 23 23 38 29 71 29 35 0 48 -6 77 -35z"/>
</g>
</svg>
