<svg xmlns="http://www.w3.org/2000/svg" viewBox="774.3171434771751 12.480575707324478 943.2847327576188 1667.842023495266"><g fill="currentColor"><path d="M1211.5 13c-82.2 5.1-172.2 36.5-244.4 85.3-45.4 30.6-86.1 72.8-120.8 125.2-30.3 45.7-57 110.1-65.9 159-3 16.3-3.4 19.4-5 36.5-2.5 28-.7 53.7 5.7 81 2.6 11.6 3.7 13.9 6.7 14.7 5.5 1.4 5.7.7 5.8-24.8 0-19.2.4-26.1 2.3-38.4 2.1-13.9 7.4-37.2 8.7-38.5.4-.3.3 2 0 5s-.8 16.6-1.2 30.1c-.7 24.9 0 36.2 3.2 58.8 7.3 50.1 27 92.8 54.8 118.9 7.1 6.6 10.2 8 13.5 6.2 3.3-1.7 2.7-6.4-1.8-13.5-3.9-6.1-7.4-13.5-6.8-14.1.1-.2 2.6 3.2 5.4 7.4s8.3 11.4 12.2 15.9c6.7 7.7 7.1 8.6 7.1 13 0 17.6 9.4 43.7 21.7 60.4 6.6 9 16.6 19.3 24.8 25.4 10 7.4 9.7 6.8 6.8 15.5-3.3 10.1-4 20.6-1.9 29 3.7 14.5 11 24.4 22.2 30.1 6.2 3.1 7.6 3.4 15.3 3.4 7.4 0 9.4-.4 14.3-2.8 9.7-4.7 18.4-16.4 20.4-27.1l.7-3.9 5.1 5.4c20.5 21.5 45.8 34.9 90.1 47.8 14.5 4.2 55.9 12 72 13.6 8.2.8 12.8 1.6 12.3 2-.2.2-3.9 1.1-8.3 2-6.9 1.5-24.1 6.9-37 11.8-2.2.9-12.3 4.5-22.5 8-37.8 13.1-53.3 22.6-69.8 43-12.1 14.9-20.4 28.7-41.2 68.2-14.3 27.1-27.7 49-47 76.9-9.5 13.6-11 17.4-9.1 23.5 1.9 6.4 11.2 19 21.9 29.6l10.2 10.2-4.5 9.7c-12.2 26-21.6 52.3-29.4 81.6-3.6 13.6-15.1 70.1-15.1 74.1 0 .4-3.9 6.1-8.7 12.6-29.7 40.5-44 61.5-48 70-2.7 5.8-3.9 12-4.8 24.9-.3 4.9-.8 10.7-1 12.9s-.7 10.1-1.1 17.6c-.5 10.9-.3 14.7.9 19 2.2 7.3 6.9 11.9 13 12.6 6.6.8 11-1.1 16.1-7 3.9-4.4 4.6-4.8 5.1-3.1 2.3 7.1 6.4 16.3 8.6 19.4 4.5 6.2 8.6 8.5 15 8.5 6.8 0 11.5-3.1 14.4-9.4l1.8-4.2 2.6 2.4c4.8 4.4 7.8 5.8 12.9 5.9 6.2 0 10-2.1 13.5-7.4 2.7-4.1 4.4-14.2 3.4-19.5-.4-2 .1-3.1 1.8-4.5 1.3-1 2.6-2.7 3-3.7.5-1.6.9-1.6 6.2 1.1 3.1 1.5 6.8 2.8 8.3 2.8 3.2 0 3.3.1 5.5 15.1 3.2 21.7 12.1 60.5 22.2 97.4 11.4 41.4 34 110.3 37.9 115.3 3.6 4.6 8.2 6.6 21.5 9.6 23.7 5.3 53.1 7.6 89.9 7.1 35.8-.6 61.1-3.3 84.5-9.1 11.6-2.9 15.5-4.9 17.4-9 1.5-3.1 1.2-10.5-2.4-61.4-.8-10.7-1.6-23-1.8-27.3-.4-7.8.5-11 1.7-6.1.6 2.4 8.6 21.7 25.3 61.4 3.6 8.5 8.1 19.3 10 24 9.4 23 12 25.1 37.3 29.9 18.7 3.5 33.4 4.6 60.5 4.4 27.7-.1 43.9-1.5 69.5-5.9 28.8-4.9 46.4-10.7 52-17.1 2.8-3.2 3-3.8 3-12.1 0-16.2-2-47.7-3.5-55.4-.9-4.2-3.8-13.4-6.6-20.4-7.5-19.1-7.5-18.7-5-43 2.5-23.1 4.6-49.6 5.8-71.6 1-17.4 1-70.7 0-76.5-.6-3.8-.5-4.2 2.1-5.1 4.5-1.6 10.9-7.9 13.6-13.4 2-4.1 2.6-6.7 2.6-12 0-6.8-2.9-22.4-5.6-30l-1.4-4 5.1-5.6c6.3-7.1 12.8-20 16-31.6l2.4-8.9 10-9.1c11.1-10.1 33.6-32.4 40.6-40.1 22.9-25.4 41.1-55 46-74.5 4.5-17.7.5-35.7-13.1-60.1l-3.2-5.7 3.5-4.8c6.7-9.4 9.5-23.1 6.3-30.9-.8-1.9-4.3-6.5-7.8-10.3-3.5-3.7-10.1-11.1-14.7-16.3s-11.4-12.6-15-16.4c-6.8-7.1-22.2-24.1-25.7-28.3-1-1.3-3.2-3.8-4.8-5.5-4.2-4.7-27.4-33.2-41.3-50.8-20.7-26.3-35.5-38.7-56.8-47.6-3.3-1.4-7.8-3.3-10-4.3s-11.9-4.9-21.5-8.8c-9.6-3.8-23.1-9.3-30-12.2-26.7-11.3-22.7-10.3-40.1-10.1l-15.7.2-1.1-3.2c-1.9-5.4-1.4-6.9 2.6-8.5 4.9-2.1 10.5-1.2 19.7 3.2 12.1 5.6 14.2 4.9 27.1-10.2 4.4-5.2 8.3-9.4 8.6-9.4s.2 1.8-.4 3.9c-1.3 4.7-.1 6.6 4.4 7.6 3.4.8 4.4.2 13.9-7.5 12.2-9.7 27.5-25.4 36.6-37.5 3.1-4.2 5.8-7.4 6-7.2.7.6-1.6 13.6-3.5 19.2-2 6.3-1.6 8.5 2.1 10.8 3.4 2.2 10.2-2.6 18.8-13.2 1.9-2.4 4.1-4.9 4.7-5.6 2.2-2.3 10.9-17.2 14.3-24.5 1.9-3.8 3.6-7 3.9-7s2 2.3 3.6 5.2c4 6.9 12.4 13 20.9 15.3 30.2 8.2 54.8-24.7 45-60-.9-3.3-1.8-6.9-2.1-8.1-.4-1.6 1.4-3.6 8.4-9.5 27.6-23.1 43.6-47.6 49.3-75.5 1.1-5.3 2-11.2 2-13.2 0-3.8 6.9-26.2 8.1-26.2.4 0 .5.9.2 1.9-.5 1.9 2.7 6.1 4.7 6.1 3 0 6-5.4 10.3-19.1 9.9-30.8 13.7-54.7 14-86 0-10.4.4-18.9.7-18.9.9 0 2.8 11.4 4.7 28.4 1.6 14.5 2 15.9 4 16.9 1.2.5 3.3.7 4.6.3 3.1-.7 4.1-3.5 6.2-18.1 5-33.5 3.9-70.4-2.9-103.4-12.1-58.3-33.9-112.9-65.4-163.6-20.5-32.9-37.3-54.8-58.1-75.5-44.9-44.6-105.5-77.5-153.6-83.1-9.7-1.1-39.5-.7-44 .6-1.5.5-3.8-.7-8.5-4.5-24.2-19.4-63.8-33.3-109-38.4-17.1-2-44.7-2.7-61.5-1.6m64.3 13.5c42.8 5.9 75.9 17.9 100.1 36.1l8.5 6.4 21-.6c17.2-.6 23.1-.4 32.1 1 58.8 9.1 128.1 54.6 172.2 113.1 49.4 65.4 86.8 154.2 94.3 223.8 1.3 12.6 2.5 40.4 1.6 39.6-.4-.3-2.2-6.2-4.1-13-3.8-13.7-6.5-21.9-11.8-35.4-1.9-5-5.8-17.6-8.7-28-16.2-59.5-37.7-108.1-66.2-149.2-4.4-6.5-9.2-13-10.6-14.6-3.4-3.6-7.8-3.7-9.4-.2-1.3 2.8-1.7 2 13.3 24.2 11.7 17.3 16.4 25.3 24.8 42 24.1 48.3 39.6 96.8 47.2 148.2 2.7 17.9 3.7 59.7 1.9 77.8-1.2 12.3-3.6 28.2-4.3 29-.2.2-.7-6.5-1-14.9-1-24-4.3-43.2-11.7-68.1-9.9-33.8-24.7-64.8-46.6-97.8-5.7-8.6-11-17.3-11.8-19.5-5.7-16.1-23.9-50.2-28.2-53.1-2.3-1.5-6.7.3-7.2 2.9-.2 1 2.5 6.8 5.9 13 11.6 20.9 24 49.1 31.4 71.3 10 30 16.5 67.6 16.5 94.4-.1 15.4-1.6 37.6-2.8 39.7-.6 1-1.6-4.1-3.1-14.8-1.2-9-3.6-22.4-5.2-29.8-3.6-16.6-12.8-50.2-14-51.5-.5-.5-.9-1.8-.9-3 0-1.1-.9-3.5-2-5.3-1.5-2.4-2.7-3.2-4.8-3.2-5.7 0-6.2 2.5-3.2 15.2 2.7 11.3 3.6 27.9 2.8 48.8-1.6 44.5-14.5 91.1-33.6 122.4-3.9 6.2-5.3 6.2-2.7-.1 3.4-8 9.7-27.2 12.1-36.8 6.7-27 11.5-69.2 8.4-73-1.8-2.2-6.7-1.9-8 .4-.5 1.1-1 4.7-1 8 0 7-4.4 40.3-6.6 50.6-4.1 18.4-12.6 43-19.9 57.5-5.5 11.1-17.9 29.3-24.2 35.8-3 3.1-5.2 4.8-4.8 3.7s2.4-8.8 4.6-17c8.9-34.5 13-75.9 9.9-102.2-.9-8.1-.9-8.4 3.1-19.5 13.5-37.8 15.5-74.5 6.5-118.3-3.2-15.6-8.2-35-10.3-39.8-1.5-3.4-2-3.8-4.7-3.5-5.2.5-5.4 3.5-1.3 18.9 2 7.4 4.8 18.8 6.2 25.4 9 41.4 6.9 77.7-6.4 111.5-4.2 10.9-12.8 27.1-14.6 27.7-.7.2-1.1-6-1.1-17.9-.2-30.3-5.3-66.6-13.1-94.1-3.9-13.7-13.6-40.9-18.3-51.2-3.2-7-5.8-14.6-9.6-27-2.8-9.7-9.6-28.1-12-32.6-2.1-4.2-5-5.4-8-3.4s-3.1 4.8 0 11.6c2.8 6.4 8.6 23.5 11.4 33.4 6.3 22.4 9.9 60.3 8.2 87.8-1.4 23.8-1.6 24.1-5.7 11-15.7-49.7-23.8-70.4-41.6-107.3-10.6-21.7-26.9-50.9-39.5-70.4l-6.4-9.8 1.1-6.2c5.1-29.6 6.4-69.3 2.4-73.9-2-2.1-4.1-2.2-6.5 0-1.6 1.4-1.8 3.4-1.8 16.7 0 66.7-23.5 151.8-56.5 205.1-7.4 12-20.4 30-21.1 29.3-.2-.3 1.2-4.9 3.2-10.4 14-38.4 20.4-61.7 26.8-97.4 1.9-10.6 2.4-13.7 3.6-23 .5-4.1 1.2-9.3 1.5-11.5 2.2-16.4 4.5-37.7 4.5-41.7 0-3.8-.4-5-2.1-5.9-4.5-2.4-8.9 2.9-8.9 10.7 0 3.4-7.9 34-12.2 47.4-13.5 42-38.2 92.4-60.7 124.1-8.1 11.3-19.3 24.4-28.5 33-7.8 7.4-24.6 20.3-24.6 19 0-.4 2.6-7.5 5.8-15.7 13.2-33.6 24-69.9 35.1-117.9 2.9-12.5 5.9-22.1 11.4-36.1 12.5-31.6 14-39.4 7.8-40.2-3.2-.5-5.7 2.2-7.1 7.6-5.6 22.3-37.8 92.1-58.1 126.2-4.1 6.9-10.1 16.9-13.2 22.2-8.5 14.5-34.2 52.1-39 57.3-3.7 4 7.4-54.5 14.3-75.5 2.9-8.5 10.7-34.1 11.9-38.3.8-3.3.7-4.1-1-5.8-1-1-2.8-1.9-3.8-1.9-2.2 0-6.6 5-9.8 11.2-1.3 2.4-9.3 17.6-17.9 33.8s-19.9 38-25 48.5c-5.2 10.4-9.4 18.2-9.4 17.2 0-3.3 4.9-24.3 8.9-37.8 6.8-23 14.5-42.5 20.5-51.4 16.3-24.4 29.9-53.3 28.2-60-.8-3-5.1-4.4-7.1-2.4-.7.8-2.5 4.5-4 8.4-7.7 19.7-29.4 55-55.1 89.5-17.9 24-26.9 36.4-31 42.2-3.5 5.2-4.3 5.7-7.6 5.8-10 .1-29.6 4.6-41.2 9.5-1.8.8-1.8.4-1.2-7.1 1.8-20.8 10-57.7 17.1-77 9-24.7 22.3-52 32.1-66.5 3.9-5.7 2.8-9.9-2.8-9.9-2.1 0-3.4 1-5.6 4.2-13.9 20.3-27.9 49.8-37.2 78.3-4.8 15-5.2 15.9-10.1 24-6.5 10.9-16.6 39.9-22 63.1-2.1 9.3-2.2 9.5-6.8 12.6-10 6.8-12.3 11.3-7.5 14.5 2.5 1.6 2.8 1.6 5.7 0 1.6-1 3.1-1.6 3.4-1.4.2.2-.2 3.8-.9 7.8-.8 4.6-1.2 17.3-1.3 33.1 0 14.2-.1 25.8-.2 25.8-.2 0-2.1-3.6-4.3-8-9-17.9-14.7-37.5-18-61.5-1.3-9.9-1.3-35.2 0-46.5 2.5-20.6 2.5-19.6 0-21.3-2.6-1.8-6.6-.6-7.4 2.2-5 18.8-5 60.2-.1 84.6.8 3.9 1.7 15.6 2 26.5.2 10.7.9 22.2 1.4 25.5 2.5 16.1 2.6 16-3.2 4.4-20.1-40.3-27.6-100.6-19.6-158.9 5.6-41.4 18.6-85.2 37.4-126 3.2-6.9 6.2-12.9 6.6-13.5 1.3-1.3 1.1-5.9-.3-7.3-2.1-2.1-6.4-1.4-8.2 1.3-5.1 7.8-19.9 43.2-27.1 64.8-19.8 59.5-26.3 124.8-17.9 179.2 5.7 36.5 19.1 70.6 36.1 91.6 4.3 5.4 5.7 8.1 7.4 14.4 4.2 16.2 14.7 44.1 18.1 48.2.7.9.7 1.3 0 1.3-.6 0-5.1-3.3-9.9-7.3-24.7-20.6-46.8-52.5-59.2-85.5-2.7-7-5.5-15.2-6.4-18.2-4.5-15.8-9.7-44.5-9.7-53.9 0-2.5-.7-4.4-2-5.6-2.7-2.4-6.8-1.3-7.6 2.1-1.7 6.8 2.4 34.9 8 55.6 4.3 15.7 10.2 30.5 20.6 52.1 4.5 9.3 8 17.3 7.8 17.9s-2.7-1.9-5.6-5.5c-18.5-23.6-33.3-56.7-40.6-91.2-9.5-44.2-10.1-81.5-2.1-126.3 1.6-9 7.4-32 9.9-39.1 2.8-7.8 1.7-12.1-3-12.1-2.9 0-4 1.6-6.9 9.9-6.9 20.3-12.5 48-15 74.1-.4 3.6-1.5 9.2-2.6 12.5-2.6 8.2-5.6 26.9-6.4 39-.3 5.5-.8 12.8-1 16.2-.7 9.2 1.3 44.5 3.4 61.1 1.9 14.4 6.6 36.7 9.6 45.2q3.6 10.2-1.8 2.4c-11.1-16.2-20.8-40.8-26.3-66.3-5.5-25.2-6.7-36.9-6.8-64.6-.1-34.3 2.7-58.9 10.3-90 2.8-11.3 10.8-36.3 14.5-44.9.9-2.1 1.6-4.6 1.6-5.6 0-2.5-3.5-5.2-6.2-4.8-2.6.3-7.1 8.4-14.3 25.8-2.4 5.8-5.7 13.4-7.3 17-9.3 20.3-20.1 52.6-24.7 73.6l-2.3 10.9-.1-6.6c-.1-7.7 2.9-32.8 5.9-49.4 3.2-17.4 6.4-29.8 13.1-49.7 25.7-77.2 73.5-148.9 133.9-201 37.9-32.6 89.7-62.3 141.6-81.2 48.3-17.5 91.1-26.9 132.4-29 14.4-.8 52 .4 62.8 1.9m96.9 233.7c2.8 4.6 5.9 9.9 7 11.8s5.1 8.9 8.8 15.4c8.4 14.8 22.6 43.7 28.4 57.6 2.4 5.8 5.2 12.4 6.3 14.8 5.9 13.5 21 57.6 19.8 58-.5.2-2.2-.4-3.9-1.2-5.4-2.8-30-9.5-40.8-11.1-13.5-2-32.2-2-45.8 0-30.7 4.6-61.4 23.6-50 31.1 3 1.9 6 1.1 17.9-4.8 10.1-5.1 26.3-10.4 37.4-12.3 10.1-1.8 33.3-2 44.3-.5 15.9 2.2 43.4 10.3 44.9 13.2.9 1.6 4.7 20.4 5.6 27.6.7 5.3 3.6 9.2 7 9.2 2.3 0 5.1-4 6.2-8.8 6.4-29.8 7.7-40.1 7.7-62.9 0-10.6.3-19.3.6-19.3.4 0 1.2 2.1 1.9 4.7.7 2.7 1.9 6.7 2.6 9 1.7 5.2 5.7 23 7.8 34.2 4 20.9 5 34.2 5.1 65.3 0 29.4.1 30.8 2 32.2 4.8 3.7 10.9.2 18.2-10.7 1.4-2 3-3.7 3.6-3.7 2 0-1.6 48.7-4.9 66.4-2.9 15.5-6.4 28.9-12 45.8-5.3 16.1-5.5 17-4 19.4 1.3 1.8 2.5 2.4 5.4 2.4 3.1 0 5-1 10.3-5.2 8-6.4 15.4-13.9 20.9-21.2 2.3-3.1 4.4-5.6 4.6-5.6.1 0 1.4.4 2.7.9 1.8.7 3 .5 4.6-.5 5.1-3.6 24.1-29.7 30.2-41.4 1.2-2.5 5-10.8 8.4-18.5 7.5-17.2 8.5-18 23.5-18 10.7 0 15.3 1.6 22.7 8 16.3 13.9 22.5 46.2 14.2 73.2-5.2 16.7-16.1 34.9-29.9 49.7-5.7 6.2-19.8 17.6-21.6 17.6-.8 0-3.1-1.5-5.1-3.4-4.8-4.3-12.6-8.2-17.9-9.1-8.5-1.3-18.2 3.5-21.1 10.4-1.9 4.6-1.2 11.4 1.7 15.3 1.2 1.6 2 3.1 1.8 3.4-1.1 1-14.2-2.1-21.9-5.2-4.8-1.9-9.8-3.4-11.3-3.4-2.7 0-2.7 0-15.6 18.1-28.9 40.7-64.4 65.4-133 92.7-24.8 9.9-66.3 21.8-91.5 26.3-11.3 2-16.1 2.3-37.5 2.3-32.5-.1-67.3-4-105.5-11.9-40.9-8.4-77.3-24.4-96.7-42.4-14.3-13.3-17.8-19.9-29.4-55.3-4.8-14.5-10.4-31-12.5-36.7-3.5-9.4-3.7-10.5-2.4-12.4.8-1.2 1.5-2.8 1.5-3.5 0-.8-3-6.2-6.7-12-12.5-20-21.9-42.5-29.2-70.2-3.8-14.7-6.8-28.9-7.6-37.1-.8-7.3-.5-7.1 5.3 3.1 1.7 3 5.6 8.5 8.7 12.2 4.6 5.6 6.1 6.8 8.5 6.8 4.9 0 6.1-3.1 4.8-11.5-.6-3.9-1.1-19.8-1.2-35.5-.1-25.6.2-29.8 2.2-41.5 1.3-7.1 2.4-13 2.5-13.1.1 0 1.8-1 3.8-2.2s3.9-2.2 4.3-2.2c.3 0 .6 2.8.6 6.3 0 14.6 4.4 41.8 9.2 57 2.3 7.4 4.6 9.5 9.1 8.3 1.8-.4 2.9-1.8 4-4.8 9.4-26.7 16.8-44.2 23.8-55.7 1.5-2.6 5.6-9.5 9-15.5l6.4-10.8 8 .6c4.4.4 10.5 1.2 13.5 1.8l5.5 1.1-.3 12.2c-.3 10.3-.1 12.5 1.3 13.9 4.2 4.2 8.8.8 12.5-9.2 3.8-10.2 12-28 24.1-52.5 13.7-27.8 16.1-31.5 12.4-19.2-2.3 7.5-6.3 30.6-7.4 43-2.4 25.6-2.4 27.4-.7 30 2.5 3.8 6.6 3.3 11-1.3 16-16.3 51-69.8 73.1-111.7 5.9-11.2 5.8-8.6-.8 13.5-8.4 28.3-19.1 58.8-26.1 74.5-4.9 10.8-7.6 17.5-7.6 18.6 0 2.3 3.3 4.9 6.2 4.9 3.9 0 7.2-1.8 20.5-11.2 35-24.7 60-56.2 86.6-109.3 3.8-7.7 16.1-36.1 18.1-41.9.4-1 .9-1.6 1.2-1.3.5.5-5.1 28.1-6.1 29.6-.2.4-1.3 4.3-2.5 8.7-6.3 23.9-17.9 55.1-28.7 77.2-3.5 7.3-6.3 14.3-6.1 15.5.4 3.1 4.9 4.5 8.4 2.7 4.7-2.6 20.6-18.3 28.7-28.5 29.5-37.2 51.1-83.8 65.8-142.2 2.4-9.4 4.6-17 4.9-16.8.4.2 2.9 4.1 5.7 8.7m262.5 136.3c4.2 8.3 10.4 22.2 11.8 26.5.5 1.4 2.3 6.3 4 11 2.8 7.8 7.1 23.1 9.8 35.5 3.5 15.6 4.6 24.9 4.6 39.5 0 14-.3 16.7-3.2 28.5-4.9 20.2-6.7 26.5-7.3 26.5-.3 0-1.3-2.7-2.3-5.9-3.3-11.1-13.3-23.8-24.4-31.1l-2.3-1.5 3-12c5-19.9 6.5-32.7 6.5-55 0-22.6-1.8-40.2-6.4-62.5-1.6-8-3-15-3-15.5 0-1.3 4.1 5.8 9.2 16m-547.2 7.2c-1.6 4.9-3.8 14.2-5 20.8-2.9 15.7-2.6 14.8-5.3 14.1-1.2-.4-5.5-1.2-9.4-1.8-4-.7-7.3-1.5-7.3-1.8s3.8-5.7 8.5-12c13.1-17.8 17.1-23.3 18.6-25.8 2.7-4.3 2.7-2.1-.1 6.5m-97.5 37c-.4 5.4-1.3 10.1-1.9 10.5-2 1.4-3.8.9-3.3-1 .3-.9 1.6-5.6 2.9-10.4 1.2-4.9 2.5-8.8 2.6-8.8.2 0 .1 4.4-.3 9.7m47.5 9c0 .5-.9 1.9-2 3.3s-2 2.8-2 3.2c0 .3-2.1 4.1-4.6 8.4-6.7 11.4-15.7 29.6-19.5 39.6-1.8 4.9-3.5 8.8-3.9 8.8-1.4 0-5.9-36.5-6-48.6v-6.1l7.3-2.6c12.2-4.5 30.7-8 30.7-6m567.8 16.5c3.8 22.2 5 32.3 5.4 48.3l.1 7-3.4-.3c-1.9-.2-6.4.2-9.9.7-3.5.6-6.5.9-6.6.8-.2-.1.6-3.4 1.7-7.2 4.4-15.5 8.9-43.6 8.9-55 0-3.6.4-6.5.8-6.5.5 0 1.8 5.5 3 12.2m-755.9 28.5c5.1 35 21.8 78.1 40.7 104.8l4.3 6.1-1.7 5.9c-.8 3.3-1.7 6.2-1.9 6.4-1 1.4-17.4-22.9-21.8-32.2-3.9-8.3-8-19-14.1-37.2-2.5-7.1-5.1-13.7-6-14.6-1.2-1.4-1.6-6.1-2.1-25.5-.6-24.8.3-29.4 2.6-13.7M909.3 622l4.6 5-1.1 8c-1.7 11.1 0 22.5 3.6 25.6 4.7 4.1 9.3.3 7.5-6.1-1.2-4-1.1-17.5 0-17.5.5 0 3.2 1.4 6 3.1 4.7 2.9 5.1 3 7.9 1.7 2.8-1.5 3-1.4 9.8 4.6 3.8 3.4 8.2 7.1 9.8 8.4l2.9 2.2-2.4 4.8c-3.3 6.5-3.4 19.7-.2 25.7 4.6 8.8 15.8 16.3 27.5 18.6l5.8 1.2 3.6 11.6c1.9 6.4 4 12.9 4.5 14.5 1.6 5.1 1.3 5.6-3.5 5.6h-4.4l1.5-4.3c2.7-7.7-.3-14.9-7.7-18.7-7.2-3.7-18.3-1.7-26.5 4.6l-4.6 3.5-5.7-3.8c-7.3-4.8-19.5-16.9-25.5-25.5-6.5-9.3-13.1-22.7-16.3-33.3-2.4-7.9-2.7-11.2-3.2-26.8-.2-11-.1-17.7.5-17.7s3.1 2.3 5.6 5m71.9 57.7c2.7 7 5 13.2 5.1 13.8.3 1.4-3 .7-8.9-2-6.1-2.7-10.4-7.9-11.1-13.4-.5-3.4 1-13 2.4-15.3.2-.5 2 .3 4 1.7 3.2 2.1 4.3 4.1 8.5 15.2m589.4 2.8c5.2 2.1 11.1 8.7 14.5 15.9 11.7 25.2-.3 54.7-22.3 54.6-13.9-.1-25.8-14.3-25.8-30.9 0-3.2.7-7.4 1.4-9.3l1.5-3.5 7.9.5c9 .5 17.5-1.6 19.2-4.8 2.4-4.4 1.2-7.5-4.2-11.6-3.9-2.9-5.4-4.7-5.6-6.8-.6-5.2 6-7.2 13.4-4.1m-45.4 22.5c3.6 1.3 3.6 1.4 2.3 4.1-.8 1.5-2 6-2.6 10.1-1.7 10.9-8.3 26.5-16.6 39.3-4.1 6.4-6.2 9-6.6 8.4-.2-.2 0-4.7.5-9.9.7-6.4.6-12.6-.1-18.8l-1.1-9.4 4.8-6.6c2.7-3.7 6.8-9.5 9.2-13s4.8-6.1 5.4-5.9 2.8 1 4.8 1.7m-544.1 22c2.8 1.5 2.4 3.5-1.7 7.9-2.9 3.3-3.5 4.6-3.2 7.7.5 6.2 3.9 7.9 15.9 7.9h9.9l1.1 5.4c5.1 24.5-14.8 44.4-34.2 34.3-10.5-5.5-16.5-17.9-15.7-32.7.5-9.4 3.2-16.1 9.5-23.4 6.3-7.4 13-10 18.4-7.1m503 22.8c-4.1 8-14.9 21.2-28 34.2l-13.6 13.4-.7-5.3c-.3-3-1.6-6.6-2.7-8.2-1.2-1.6-1.8-2.9-1.3-2.9 2.6 0 36.5-24.6 43.2-31.4 4.6-4.6 5.5-4.5 3.1.2M1425 789c0 1.2-14.7 19.5-18.7 23.3l-3 2.7-5.5-2.4c-3-1.4-7.2-2.8-9.2-3.1-2-.4-3.8-1.1-4.1-1.5s3.9-2.6 9.3-4.9c5.3-2.3 14.4-6.6 20.2-9.5s10.6-5.4 10.8-5.5c.1 0 .2.3.2.9m-60.5 50.8c1.9 1.8 3.5 3.5 3.5 3.9 0 .7-7.1 10.2-11.4 15.3-21.4 25-66 56.6-86.1 61-2.7.6-7 2.2-9.4 3.6l-4.4 2.4-3.5-2.7c-11.7-8.9-25.6-25.3-31.8-37.6-4.9-9.5-10.2-27.6-8.8-29.8.3-.5 1.4-.9 2.5-.9 3 0 7.6-5.1 8.8-9.8l1.1-4 18.8-.1c18.7 0 35.5-1.8 51.4-5.5 11.9-2.8 50.4-14.2 58.8-17.4 2.5-.9 2.5-.9 4.7 8.7 2 8.3 2.8 10.1 5.8 12.9m58 12.7c6.6 2.9 22.4 9.5 35 14.5 21.7 8.7 36.1 15.2 44.8 20.1l3.8 2.1-5.8 6.2c-15.3 16-27.4 36-35.9 59.4-5.4 14.8-12.1 40.8-13 50.3-.6 6-.5 6.7 1.5 8.1 2.6 1.8 5.8 1.3 7-1.1.4-.9 1.3-5 2-9.1 5-30.2 16.1-59.6 31-82.1 7.1-10.7 18.4-23.9 20.5-23.9 2.5 0 19.3 18.9 33.3 37.5 3.3 4.4 8.7 11.2 11.9 15.1s9.7 11.8 14.4 17.5c11.4 13.9 15.9 19 24.4 27.9 4 4.1 11.7 12.4 17.1 18.5 5.5 6 10.2 11.2 10.5 11.5 5.1 5.1 14 15.3 14 16 0 .6-1.5 1-3.4 1-13.9 0-56.2 21.7-79.1 40.4-16 13.1-37.5 36.4-47 50.8-3.3 4.9-3.3 5-4.6 2.6-1.9-3.6-13.2-23.6-17.1-30.3-9.1-15.7-12.3-21.5-22.7-41.5-10.5-20.3-14.4-26-17.6-26-2.1 0-4.5 2.9-4.5 5.6 0 4.7 18.9 41.6 37.3 72.7 3.8 6.5 6.9 12.8 7 14 0 1.2-1.2 9.8-2.7 19.1-1.4 9.2-2.4 17.7-2 18.8.3 1.1 3.5 6.5 7 12.1s6.4 10.8 6.4 11.6c0 1.8-6.1 11.8-11 18-4.2 5.3-4 5.2-28 10.6-24.4 5.4-42.1 12.6-59.7 24-14.1 9.3-29.9 25.8-36 37.9-8.8 17.4 4.8 30.1 24 22.2 3.1-1.3 5.7-2.3 5.7-2.2 0 1.3-9.3 20.1-10.2 20.7-.7.5-5.2.9-9.9.9-13.7 0-48.6 3.6-66.9 7-63.6 11.5-67.9 12.2-97 15-56.4 5.6-98.5 1.5-145.1-14-29.3-9.7-56.8-23.3-61.4-30.4-1.5-2.3-1.5-3 1.1-11.3 3.5-11.5 8.6-24.3 17.2-42.8 3.8-8.3 9.2-20 12.1-26.1 7.1-15.4 7.9-21.5 4.2-30.7-2.6-6.6-.5-12.6 8.3-23.7 7.6-9.5 9.6-12.6 10.7-16.3 1.1-3.8 2.2-14.2 4.9-45.2 4.8-57.2 11.2-86.3 27-123.2 6.6-15.2 6.5-18.3-.7-18.3-2.8 0-3.5.6-5.4 4.2l-2.2 4.3-.9-3c-.4-1.7-2.7-15.7-5-31.3l-4.1-28.3 4.4-4.6c6.3-6.5 18.2-15.2 27.6-20.1 8.9-4.6 27.4-12 36.8-14.6 3.3-1 12.6-4.2 20.7-7.2s15-5.4 15.3-5.4.5 4 .5 8.9c0 15.2 5.9 29.8 17.5 43.4 7.1 8.3 14.6 13.8 25.6 18.6l7.4 3.2v7.7c0 6.7.4 8.6 3.2 14.3 5.1 10.2 22.2 26.9 27.7 26.9 3.6 0 14.5-7.1 22.5-14.7 9.2-8.6 13.2-15.3 14-23.7l.6-6 12.5-3.6c24.8-7.2 49.7-20.4 68-36 3-2.6 6.6-5.5 7.9-6.6 5.4-4.4 17.3-19.1 20-24.8 1.6-3.3 3.7-9.1 4.7-12.9 2-7.9.4-7.9 17.9-.2m-36.7-2.9 7 1.6-.8 2.9c-2 6.8-6.9 13.9-16 22.9-21.6 21.7-49.8 38.3-77.7 45.9-4 1.1-7.3 1.7-7.3 1.3s2.5-2 5.6-3.6c7.5-3.9 26.3-16.6 36.5-24.6 16.2-12.6 43.9-42.3 43.9-46.9 0-1.4.5-1.4 8.8.5m-183.2 15.2c3.3 16.1 13.8 36.1 26.5 50.5 7 8 4.5 8.4-10.1 1.6-13.4-6.3-22.5-15.4-28.9-28.7-4.2-8.7-7.1-24.5-4.7-25.9 1.7-1.1 12.9-4.1 14.5-4 .9.1 1.9 2.5 2.7 6.5M1063.1 948c3.3 23.2 5.3 34 6.9 37.1.9 1.5.1 4.7-3.4 14.7-11 31.6-16.2 60.5-19.6 107.2-1.3 17.8-1.9 24-2.6 24-.2 0-4.1-1.9-8.6-4.1-21.9-11-40.6-25.5-54.6-42.3-4-4.9-8.1-10.4-8.9-12.2-1.6-3.3-1.6-3.4 2.2-9.6 2.1-3.5 6.6-10.1 9.9-14.8 16-22.5 25.9-39.1 48.6-82.1 10.5-19.8 22.6-40.6 24.9-43 1.5-1.5 1.6-1.4 1.9 1 .2 1.4 1.7 12.3 3.3 24.1m182.9-16.3c1.3.9 3.7 3.2 5.3 5s3.7 3.3 4.7 3.3c.9 0 4-1.8 6.8-4 9-7.2 17.2-5.2 17.2 4.2 0 2.1-.9 5.6-1.9 7.7-2.4 4.6-10.8 13.3-17.8 18.3l-5.1 3.6-3.6-2.4c-4.3-2.9-12.9-13.4-15.6-19-2.2-4.4-2.6-11.4-.9-14.5 2-3.8 7.1-4.8 10.9-2.2m397.7 125.3c-.5 3.7-4 10-5.5 10-.9-.1-8.5-11-8-11.5.7-.7 8.1-2.3 11.2-2.4 2.8-.1 2.8 0 2.3 3.9m-22.6 7.2c10.5 14.3 17.4 25.2 21.8 34.1 6.7 13.9 8.2 18.8 8.8 28.9.5 7.6.2 9.7-2.2 17-9.8 30-36.4 64-84.8 108.3l-9.8 9-3.1 10.5c-4.1 14.5-9.7 24.8-16.5 31-6.4 5.7-17 11.3-26.5 13.9-11.3 3.2-15.8 7.2-28 24.6-8.6 12.1-21.1 23.6-24 21.9-.4-.3-.8-2.5-.8-4.9 0-8.3 7.5-24.5 20-43 4.2-6.4 6-9.9 6-12.2 0-3.7-2.8-5.8-6.5-4.9-2.2.6-11.4 10.2-32.4 34-12.1 13.7-20.7 20.6-25.6 20.6-5.8 0-5.9-3.7-.6-14.6 5.1-10.4 16.4-26.1 29.5-40.8 8.7-9.8 10.6-12.4 10.6-15 0-3.7-1.5-5.6-4.5-5.6-2.5 0-17.6 15.1-27.1 27-5.9 7.5-16.9 24.4-21.5 33-2.2 4.1-2.8 4.5-6.7 4.8-8.5.6-9.1-2.8-2.9-17.3 7.6-17.9 19-35.5 32.8-50.7 7.5-8.3 8.6-11.5 4.7-14.2-1.2-.9-2.8-1.6-3.6-1.6-.7 0-5.2 3.7-10 8.2-10.2 9.7-27.2 22.8-34.2 26.3-5.4 2.7-11.1 3.3-12.8 1.2-1.5-1.7 1.1-6.8 8.5-16.4 10.4-13.7 21.6-22.5 41.2-32.3 12-6 23.2-9.6 42.6-13.9 20.5-4.6 21.9-5 25.9-8.3 6.1-5 24.1-34.1 43.8-70.9 5.5-10.1 12.1-20.1 18.1-27.1 6.6-7.8 8-10.3 7.2-12.8-1.6-4.9-8-4.9-11.5 0-1.9 2.7-6 4.2-6 2.2 0-1.2 17.6-18 25.5-24.4 3.9-3 11.1-8.2 16-11.4 9.5-6.2 32.1-18.3 34.2-18.4.7 0 2.6 1.9 4.4 4.2m-608.4 63.4c5.8 3.6 15.2 8.8 20.9 11.4 10.3 4.9 10.3 4.9 9.4 7.7-.6 1.5-4.4 7.2-8.5 12.7-10.5 14-11.8 17-11.2 25.9.3 4 1 9.1 1.5 11.5 1.2 5.3-.4 10.1-10.3 31.3-16.5 35.2-25.5 58.2-27 68.9-.9 6.7 2.3 12.2 10.7 18.5 6.2 4.6 6.5 5 4.5 6-1.8.8-2.3 2.3-3 8-1.7 15.3-6 22.4-19.6 32.5-6.4 4.8-9.6 9.6-12.6 19-3.3 10.3-8.4 19.7-13.8 25.4-5.5 5.8-8.5 6.9-12.8 4.6-2.7-1.5-2.5-8.3.6-22.3 5.3-23.8 7.2-45.6 4.3-48.5-1.7-1.7-6.3-1.5-7.8.3-.7.8-1.8 6.7-2.6 13.2-2 16.3-1.9 16-5.7 17.2-5.4 1.8-12.5 6.8-14.1 9.9-.8 1.6-2.5 8.5-3.6 15.3-5.1 29.9-10.2 41.3-17.5 39.5-3.5-.9-4-6.5-2.6-31 2.3-39.4.9-36 32.5-80.1 8.3-11.6 17.1-23.7 19.6-27 9.5-12.4 9.9-13.2 12.5-28.6 7.4-42.9 17.7-82.2 29.2-111.9 5-12.8 15.3-36 16-36 .3 0 5.2 3 11 6.6m521.4-2.3c-.1.4-2.2 4.3-4.7 8.7-4.4 7.5-4.9 8-8 8-1.9 0-3.4-.5-3.4-1 0-.6.4-1 .8-1 .5 0 1.3-1 1.9-2.3 1.9-4.1 10.5-13.8 12-13.5.8.2 1.4.6 1.4 1.1m-27.5 27.6c2.1.6 5.6 1.1 7.7 1.1 2 0 3.7.2 3.7.5 0 1.7-13.6 24.3-14.3 23.8-.5-.3-2.7-3.3-4.9-6.7-4-6.1-4-6.1-3.4-13.6.6-6.3.9-8.8 1.5-11.9.1-.2 1.4 1 2.9 2.7 1.6 1.6 4.6 3.5 6.8 4.1m28.2 177.5c2.2 9.3 2.8 17.9 1.6 21-.9 2.4-1.9 1.9-2.2-1-.4-4.8-.3-4.8-19.7-10.4-8.4-2.5-13-4.3-13-5.1s1.6-2.2 3.5-3.2c4.2-2.1 25-10.4 26.6-10.6.6 0 2 4.1 3.2 9.3m-506.6 1.7c22.6 9.9 45.8 17.3 68.3 21.8 25.4 5.1 40 6.4 69.2 6.4l26.1-.1 2.2 9.7c4.1 17.7 12.2 39 18.1 47.2 1.1 1.6 2 3.2 1.8 3.4-.3.2-2.4-.5-4.9-1.5-32.6-13.5-31.9-13.3-34.5-11.6-3 2-3.4 6.5-.7 8.8.9.8 14.3 6.6 29.7 12.7 15.4 6.2 28.9 11.8 30 12.6 1.2.7 3.5 4.1 5.2 7.7 2.6 5.4 21.9 55.5 27.4 71.3 1.3 3.9 1.8 9.9 2.3 27.5.3 12.4 1 28.8 1.6 36.5 3.3 46.3 4.1 64.8 2.8 65.6-3.8 2.4-31.9 7.5-54.8 10-15.3 1.7-66.8 1.7-83.5.1-25.1-2.6-48.2-6.8-51.9-9.5-4.5-3.3-25.1-66.6-42.4-130.2-5.7-21.3-7.7-29.6-12.6-54.7-7.6-38.4-10.2-67.8-9.2-105.3.5-22.4 1.2-31.5 2.3-31.5.3 0 3.6 1.4 7.5 3.1m350.5 6.4c.8 10.2 6.5 15.5 17.1 15.8 5 .2 5.7.5 7.2 3.2 2.6 4.8 7.5 7.5 13.4 7.5 6.7-.1 12.4-2.7 21.4-10.2l7.3-6.1-.8 3.9c-1.1 5.6-.5 14.5 1.3 17.2 2.2 3.4 7.4 6.2 11.4 6.2 7.7-.1 17.5-7.2 28.2-20.8 2.7-3.4 5.3-6.2 5.7-6.2s1.2 4.4 1.9 9.7c6.4 52.2 6.6 100 .6 146.6-1.3 10.6-2.7 26.4-3 35.2-.8 17.9-.1 21.5 6.8 38.5 4.5 11 6.4 18.6 8.3 33.5 1.8 14.8 3.6 43.7 2.7 44.7-1.4 1.4-36 7.8-51.2 9.4-32.4 3.5-77.4 2-104.5-3.6-15.7-3.2-15.3-2.9-22.2-18.2-12.9-28.4-44-105.2-68.2-168.8-16.8-44.1-15.5-41.8-27.1-47.7-4.9-2.5-6.9-4.3-9.5-8.5l-3.4-5.3 3.2-.7c1.8-.3 5.8-1.2 9-1.8 6.9-1.4 12-5.4 13.8-10.7 1.3-4 .8-9.5-2.1-21.7-2.1-8.7-5-24.9-4.6-25.3.1-.2 8.1-1.6 17.7-3.2s24.8-4.3 33.9-6c30.3-5.7 66.4-10.1 79.5-9.8 5.9.2 6 .2 6.2 3.2m131.1 12.1c3.2.9 6 1.9 6.5 2.3 1.3 1.2 3.4 34.5 3.6 57.1.2 22.1-.8 44.7-3.4 79.5-1.6 20.6-1.7 21.7-3.5 37-.6 4.9-1.2 13.5-1.3 19-.1 9.3.2 10.7 3.7 20 2.1 5.5 4.6 11.8 5.6 14 4.4 9.7 5.8 19.9 6.6 48.4l.7 22.1-4.7 2.1c-2.6 1.1-4.9 1.9-5.1 1.7-.1-.1-.6-6.4-.9-13.8-1.5-30.2-3.9-44-10.5-62.2-2.7-7.3-5.4-15.7-6.1-18.7-1.7-7.1-.8-29.3 1.9-50.1 5.6-43.2 5.8-96.1.5-144.8-.7-7.4-1.4-13.8-1.4-14.3 0-1.3 1.4-1.1 7.8.7m-506.4 18.9c-1.4 1.9-4.9 5.1-7.6 7.1-4.8 3.5-14.6 8-15.5 7-.3-.3.1-2.4.9-4.8 1-3 2.8-5.3 5.9-7.7 7-5.3 11.2-9.3 14.9-14l3.5-4.3.3 6.6c.3 5.9 0 7-2.4 10.1m229-9c.3 3.1 2 11.7 3.6 19.2 1.7 7.5 3 15 3 16.5 0 3.6-4.4 6.4-11.4 7.3-2.8.3-6.3.8-7.8 1.1-2.4.5-3 0-5.1-4.3-3.5-6.9-7.4-18.1-10.7-30.5l-2.8-10.7 4.1-.5c6.1-.8 25.1-3.4 25.8-3.5.3 0 .9 2.4 1.3 5.4m299.6-2.6c-1.5 2.9-3 3.5-3 1.3s.8-3.2 2.7-3.2c1 0 1.1.5.3 1.9m-602.7 31.8c-.9 3.2-1.6 9.4-1.7 13.9-.1 7.2.2 8.5 2.7 12.2 1.7 2.6 4.5 5.1 7.6 6.6 4.3 2.2 5 3 6 7 2.4 9.8.2 21.9-4.6 24.4-4.3 2.3-8.1-3.4-14.3-21.3-4.8-13.8-4.9-15.9-2-33 1.6-9.3 2.5-12.4 4.1-13.8 3.4-2.8 3.8-2 2.2 4m75.2 9.8c2.9 3.9 4.3 17.5 1.9 17.5s-6.7-2.6-10.1-6.2-9.3-13.2-9.3-15.1c0-.7 2.6-2.4 5.8-3.8l5.7-2.6 1.9 3.6c1 2 2.9 4.9 4.1 6.6m-25.2 6.8c3.9 8.5 4.2 9.7 2.9 9.7-.4 0-2.1-2.6-3.6-5.8-1.6-3.1-3.6-6.5-4.4-7.4-1.4-1.7-1.1-4.8.5-4.8.4.1 2.5 3.8 4.6 8.3m-7.4 17.7c3.3 8.5 4 16.1 2 21.9-2.9 8.3-12.2-.8-18.1-17.9l-1.9-5.5 2.3-1.5c1.3-.8 3.9-3.1 5.8-5 3.4-3.5 3.6-3.5 5.2-1.8.9 1.1 3.1 5.4 4.7 9.8"/><path d="M1244.5 49.1c-31.5 2-63.9 11.1-96.3 27.1-33.6 16.5-66.5 43-90.5 72.6-7.1 8.9-8 11.7-4.7 14.7s6.2 1.2 14.1-8.7c8.8-11.1 26.4-28.9 37.3-37.8 21.8-17.6 56.9-36.9 82.6-45.4 53.2-17.5 106.3-16.6 144 2.5 15.3 7.7 24.8 16.6 31.1 29.1 3.3 6.6 6.6 8.3 9.9 5.3 2.8-2.5 2.5-4.7-1.6-12.6-16.9-32-66.7-50.6-125.9-46.8M1397.5 96.8c-10.9 2.8-14.2 5.2-13.1 9.7.9 3.5 4.3 4 11.9 1.6 25.2-7.7 55.8.4 88.8 23.5 6.1 4.3 14.1 10.6 17.7 13.9 8.9 8.2 10.6 9.1 13.8 7 4-2.6 3-5.3-4.3-12.2-20.7-19.5-46.3-34.8-69.8-41.9-12.1-3.6-34.1-4.4-45-1.6"/><path d="M1290 97.6c-40.3 5.4-86.5 24.2-125.4 51.2-14 9.7-35.6 27.4-46.8 38.3-7.4 7.2-8.8 9-8.8 11.7 0 3.1 2.1 5.2 5.3 5.2.8 0 5.4-3.9 10.3-8.7 26.4-25.6 60.7-49.7 92-64.3 32.5-15.3 61.4-22.9 89.5-23.7 14.5-.5 17.6-.3 24.8 1.5 10.4 2.7 19.5 7 25.3 12.2 4.9 4.3 7.7 4.9 10.2 2.4 2.7-2.6 1.8-5.5-2.8-10-8.2-7.8-22.3-14.1-36.6-16.4-8.7-1.3-24.1-1.1-37 .6"/><path d="M1316.6 119c-26.9 4.2-63.3 25.8-88.3 52.3-13.1 14-19.3 22.4-19.3 26.2 0 2.7.5 3.5 2.8 4.3 3.5 1.2 6.1 0 8.9-4.2 5.3-8.1 18.3-22.4 28.6-31.3 34.5-29.7 70.3-43 94-34.8 2.6.9 5.6 1.3 6.7 1 2.3-.7 3.4-3.8 2.6-7-1.2-4.9-22.3-8.6-36-6.5M1380 129c-2.4 2.4-2.4 2.9-.4 5.8 1.3 2 2.4 2.2 9.3 2.2 14.5 0 28 4.8 44.7 15.8 23.3 15.4 43.4 37.9 62.7 70.1 7.1 11.8 20.3 37.4 26 50.3 3.1 7 6.5 9.2 9.7 6.3 1.1-1 2-2.4 2-3 0-2.1-11.6-27.4-18.5-40.5-17.5-32.8-28.6-48.4-49.9-69.6-27.1-27-50.5-39.4-74.3-39.4-8 0-9.6.3-11.3 2M1357.1 464.5c-13.4 3-25 7.6-34 13.8-10.9 7.5-24.1 22.4-24.1 27.3 0 5 6 6 8.8 1.5 8.7-14.3 24.9-25.7 44.8-31.7 16.8-5 43.9-4.2 61.1 1.7 8.8 3 12.3 2.2 12.3-2.8 0-4-7.7-7.2-24-9.8-11.8-1.9-36.1-1.9-44.9 0"/><path d="M1372.5 484.4c-29.9 4.7-52.8 21.8-67 49.8-5.3 10.6-6.3 14.8-4 17.1 1.9 2 5.3 2.1 7.5.4.9-.7 3.7-4.4 6.3-8.2 2.6-3.9 6-8.4 7.5-10 5.4-5.8 12.2-11.9 12.7-11.4.2.3-.5 3-1.6 6-5.9 15.5-7.8 38.3-4.4 54.4 5.4 25.6 17.8 45.6 33.3 53.4 10.2 5.2 29.6 6.5 42.2 3 9.2-2.5 15.5-6.5 22.1-13.8 12.8-14.3 18.8-32.8 18.9-58.1 0-14.4-1.9-27.3-5.7-37.8-1.4-4-2.3-7.5-2-7.8 2.1-2.1 19.2 14.5 24.2 23.6 2.9 5.3 3 6 2.9 17-.1 9.6-.5 13-2.9 20.5-4.1 13.2-4.1 14-1.2 16 4.1 2.7 7.7.1 11.9-8.7 8.3-17 13.9-38.9 11.9-46.3-3.9-14.3-29-39.4-48.6-48.5-22.5-10.6-42.7-13.9-64-10.6m25.5 19.7c16.1 3.3 26.6 13.6 32.9 32.6 12.9 38.7-1.2 83.5-28.9 91.7-11.5 3.4-29.7 1.2-37.8-4.7-11.7-8.4-21.4-27.2-24.9-48.6-2.6-16.2-.1-32.2 7.4-47.7 4.1-8.3 9.9-15.7 15.1-19.3 8-5.5 21.5-7 36.2-4M1055.5 500.1c-13.5 2-34 11-35.1 15.5-.7 2.9 1.1 5.4 3.7 5.4 1.1 0 5-1.5 8.7-3.4 28-13.9 54.4-12.3 77.8 4.8 4.2 3.1 8 5.6 8.3 5.6.4 0 1.5-.6 2.6-1.3 3-2.3 1.1-6.1-5.8-11.7-8.1-6.5-20.4-12.7-29.2-14.5-7.6-1.6-21.5-1.8-31-.4"/><path d="M1052.5 522c-10.1 1.7-24.7 8-33.7 14.6-11.7 8.6-26 27.6-32.2 42.9-3.3 8.3-5 17.4-4.1 23.1 1.3 8.7 14 30.5 24 41.1 5.6 5.9 9.5 7 11.5 3.2 1.2-2.2 1.2-2.2-6.5-16.2-7.1-13-10-24.8-8.4-34.5 1.6-10.6 10.3-25.4 21.1-35.9 10.7-10.6 14.7-12.8 11.5-6.6-5.9 11.4-8.6 29.9-6.8 46.9 1.6 14.7 4 23.5 10.1 35.9 12.2 25.2 30.8 38.6 53.8 38.5 8.6-.1 14.2-1.4 21.7-5.1 7.9-4 13.7-9.8 17.4-17.3 5.1-10.6 6.4-17.4 6.4-34.1 0-15.4-1.3-24.4-5.2-35.8l-1.9-5.5 2.9-.6c3.9-.7 5.5-4.7 3.7-9-5.4-13.5-23.1-31.4-38.2-38.6-12.9-6.2-33.6-9.3-47.1-7m36 22.1c15.7 5.2 26 17.3 33.4 39.5 9.6 28.5 7.7 57.4-4.7 70.6-8.2 8.8-24.3 12.2-37.2 7.8-7.4-2.5-14.5-6.7-18.1-10.7-13.6-15.5-21.1-34.5-22.5-56.6-1.1-18.3 4.6-37.7 13.8-46.9 2.4-2.4 5.9-4.9 7.8-5.6 5.1-1.7 19.5-.7 27.5 1.9M1596 557.7c-7.9 3.4-16.1 11.4-21.9 21.3-9.6 16.2-9.6 22.7-.1 37.7 3.9 6.1 4.1 12.8.6 18.8-2.8 4.7-6.2 6.6-16.1 9.1-5.9 1.4-7.8 2.5-11.7 6.3-2.5 2.6-5 5.9-5.4 7.5-1.8 7.4 5.2 10.5 9.3 4.1 3-4.6 5.4-6 14.9-8.8 10.3-3 15.3-6.8 19.3-14.9 2.4-4.7 3.1-7.4 3.1-11.7-.1-6.9-1.5-10.8-6.8-19-2.7-4.1-4.2-7.5-4.2-9.5.1-4.1 2.9-10.2 8.1-17.3 11.5-15.7 22.7-19.5 30.6-10.5 2.9 3.2 4.3 7.9 5.1 16.7.6 6 1 7.1 3.1 8.2 3.1 1.5 5.8.2 7.2-3.5 2.4-6.2-2.7-23.6-8.7-29.6-6.3-6.3-18.2-8.5-26.4-4.9M1315.8 715.7c-16.9 14.7-38 23.9-62.4 27.3-23.4 3.2-51.2-.5-67.6-9-8.4-4.3-10.9-4.8-12.8-2.6-4.9 5.9 9.5 14.5 33 19.8 9 2 13.2 2.3 29.5 2.3 20.5-.1 28.7-1.3 45.9-7 22.2-7.3 44.6-22.1 44.6-29.5 0-2.8-2.2-5-4.9-5-.5 0-2.9 1.7-5.3 3.7M1175 971.6c-25.3 5.5-44.7 15.9-61.7 33.2-14.8 15-26 36.4-30.9 58.7-2.2 10-2.9 29.8-1.5 39.2 3.9 25.2 14 47.7 29.5 65.8 23.1 26.9 53.4 44.4 91.8 52.7 9 1.9 13.3 2.2 33.3 2.2 20.2 0 24.3-.2 33.3-2.2 39.2-8.6 68.6-26 90.6-53.6 6.1-7.7 8.9-13.2 8.2-16.1-1-3.9-3.9-3.9-11.3-.2-7.6 3.9-25.4 10.9-26 10.4-.2-.2.7-2.6 1.9-5.3 3.2-6.9 3.2-20.1.1-25.9-2.6-5-10.2-12.2-13.8-13.1-1.8-.4-3.1-1.9-4.6-5.4-2.6-6.1-6.3-9.6-12.5-11.9-4.6-1.8-4.9-2.1-5.5-6.2-.4-2.4-1.5-6.9-2.6-9.9-1.5-4.3-1.7-6.5-1.1-10 .5-2.5.9-10.4 1-17.5.2-19.6-2.5-24.3-13.3-23.3-3.7.4-8.5 2.2-16.4 6.3l-11.2 5.7-4.5-1.5c-13.5-4.6-27.6-6.4-39.3-4.9l-7 .9-7-6.5c-12.3-11.3-17.4-13.4-22.9-9.1-5.2 4.1-11.1 19.5-12.2 32-.6 5.9-1.2 7.6-4.8 12.4-5 6.9-5.4 6.2-5.5-8.7-.1-11.1.7-16.8 4-27.7 5.6-18.5 21-39.1 38-50.7 7-4.8 8.5-7.4 5.7-10.2-1.6-1.6-13.6-1.4-21.8.4m0 10.3c0 .4-1.3 1.9-2.8 3.2-4.5 3.9-12.7 13.9-17.4 21.4-10.1 16.1-14.8 32.3-14.8 50.9 0 11.2.5 15.5 2.4 21.3.7 2.1.4 2.3-3.2 2.3-13.8 0-24 12.1-21.2 25.3.9 4.6.8 5.8-1 9.4-1.2 2.6-2 6.2-2 9.5 0 12.4 12.6 24.2 27.1 25.5 5.6.5 5.8.7 8.9 5.4 1.7 2.7 4.5 5.8 6.2 7 3.8 2.8 13.6 6.8 16.4 6.9 1.1 0 5.9 1.9 10.5 4.2 6.7 3.4 9.7 4.3 14.9 4.6 6.1.3 6.7.1 10.2-2.8 5.2-4.3 6.6-10.1 4.3-17.8-.7-2.1-.5-2.2 4.4-2.2 2.8 0 5.1.4 5.1.8 0 .5-.7 2.4-1.7 4.2-2.8 5.7-2.9 12.2-.2 17 3.5 6.1 8 8.5 15.9 8.4 6.7-.1 10.8-1.6 19.1-7.1 3.6-2.4 3.7-2.4 8.8-.8 7.3 2.4 19.3 1.8 24.3-1.3 3.2-2 5.3-2.3 17-2.7 14.1-.4 24.3-2.4 35.6-6.9 3.4-1.3 6.2-2 6.2-1.4 0 2.2-16.4 16.9-25.6 23.1-17.3 11.4-32.8 17.8-55.4 22.7-12.1 2.7-37.9 3.7-50.5 2.1-9.5-1.3-32.7-7-40.4-10.1-13.8-5.4-30.2-14.9-39.9-22.9-29.3-24.4-45-54.3-46.8-89-1.8-34.9 15.1-70.7 43.5-92.2 7.8-6 24.1-14.1 33.6-16.8 8.3-2.3 8.5-2.4 8.5-1.2m14.6 59.3 8.3 7.9 10.1-.8c13.6-1.2 23.6-.1 35.4 3.7l10 3.2 10.5-5.5c12.2-6.4 18.1-8.3 19.4-6.4.5.6.6 9.5.3 19.7-.4 16.7-.3 19.2 1.6 25.4 3 9.8 2.3 23.6-1.7 32.4-3.5 7.8-12.4 16.4-21.6 20.9-17.4 8.4-46.1 8.3-67.8-.4-16.9-6.7-29.3-17-35.2-29-3.2-6.3-3.4-7.4-3.3-16.8 0-11.4 1.3-15.3 8.3-24.5 3.3-4.4 4.1-6.2 4.1-9.8 0-6.2 3.8-21 6.7-25.9 3.1-5.3 3.4-5.2 14.9 5.9m-45.8 49.4c1.9.6 2.2 1.3 2.2 6.3 0 10.1 4.3 22.2 10.3 28.8l2 2.3-3.6 3.5c-1.9 1.9-4.1 5-4.8 7-1.2 3.1-1.7 3.5-5 3.5-4 0-11.1-2.8-15.1-6-3.4-2.6-6.3-10-5.4-13.6.4-1.5 1.6-4 2.7-5.5 2.3-3.3 2.4-4.8.2-10.8-1.5-4.4-1.5-4.9.1-8.3 2.7-5.6 10.1-8.8 16.4-7.2m159.4 20.6c1.9 2.8 2.5 4.4 3.2 7.7.7 3.6 3 6 5.9 6.1 3.1 0 10.3 5.7 11.8 9.2 2.1 4.9 1.6 14.5-.9 19.4-2.7 5.3-8.2 10-13.1 11.4-2.2.6-7.3 1-11.3.9-6.4-.2-8 .1-11.9 2.4-4.7 2.8-10.1 3.4-16.8 2.1-3.8-.8-3.8-1.4-.5-6.4 3.1-4.7 4.3-12.2 2.3-14.7-1.1-1.2-1.1-1.7-.2-2 3-1.1 12.3-9.8 15.5-14.6 4.8-7.4 6.8-11.9 7.9-18.6l1.1-5.9 3.1.9c1.7.5 3.4 1.4 3.9 2.1m-133.3 27.2c4.6 3.4 19.1 10.9 26.1 13.6 4.9 1.9 7.9 4.8 9.2 9.1.9 3.2.8 4.2-.6 6.4-2.5 3.7-7.1 3.3-16.5-1.5-4.2-2.2-10-4.4-12.9-5-13.3-2.5-21.2-11.4-17.1-19.3 1.5-2.9 5-6.7 6.2-6.7.5 0 3 1.5 5.6 3.4m93.3 16.7c-.8 5.4-10.7 16.5-18 20-12.9 6.3-22.4-1.5-14.5-12 3.9-5.2 5-5.8 12.3-6.6 3.6-.4 9.2-1.5 12.5-2.5 7.3-2.1 8.1-2 7.7 1.1"/><path d="M1172.6 1096.6c-2 1.9-2 2.8-.2 6.2 2.8 5.5 11.2 9.6 19.1 9.6 6.5 0 11.5-2.6 11.5-5.9 0-3.4-2.8-4.7-7.3-3.3-4.9 1.5-10.1-.1-15-4.7-4.2-3.9-5.8-4.3-8.1-1.9M1259 1108.7c-5.2 2.8-12.7 2.8-15.9-.1-2.3-2.1-6-1.8-7.5.6-.8 1.3-.6 2.4 1 4.5 3 4.1 8 6.3 14.3 6.3 11.6 0 21.6-9 14.4-12.8-1.3-.8-3-.4-6.3 1.5M1210.2 1121.2c-2.3 2.3-1.3 5.6 2.3 8.4l3.6 2.7 3.4-1.9c5.4-2.9 5.8-7 .9-9.3-3.3-1.5-8.7-1.4-10.2.1M1199.3 991.5c-1.8.8-3.9 2.8-4.8 4.4-1.3 2.7-1.3 3.1.1 4.5 2 2 4.8 2 6.4.1 3.1-3.8 10-.3 10 5 0 3.4 2.2 5.4 6.5 6 4.2.5 6.2 2.3 7.2 6.5 1.1 4.6 2.2 5.3 8.4 4.6 7.4-.9 13 1.3 15.8 6 1.5 2.4 2.7 3.4 4.5 3.4 6.9 0 4.3-10.2-3.9-15.4-3.7-2.3-5.7-2.8-10.5-2.8-5.6 0-6.2-.2-7.5-2.8-1.8-3.6-7.1-8-9.5-8-1.2 0-2.8-1.7-4.5-4.8-1.4-2.6-3.5-5.3-4.6-6-3.1-2-10-2.3-13.6-.7M1373.4 1006.5c-3.1 1.4-8.4 6.8-8.4 8.6 0 .5-2 .9-4.4.9-6.4 0-11.1 3.1-13.8 9.1-1.9 4.1-3.2 5.3-7.4 7.4-8.4 4.1-11.6 11.7-8.7 20.5 3.1 9.2 9.9 13.3 21.6 12.9 4.8-.2 8.5.3 11.2 1.4 6.1 2.5 13.3 2.2 19.1-.8 4.4-2.3 5.3-2.4 9.2-1.4 5.3 1.4 11.9.6 16.7-2.1 7.5-4.2 9.9-8.7 9.3-17.5-.5-7.8-3.6-12.3-10.7-15.7-4.6-2.1-5-2.6-5.1-5.8-.1-5.2-4-12.1-8.8-15.5-3.4-2.3-5.4-3-10.5-3.2-3.8-.1-7.4.3-9.3 1.2m16.3 11c3.5 3.5 3.6 3.7 3 9.5-.7 6.7.6 9 5.1 9 3.7 0 9.6 4.2 11.1 7.8 1.9 4.5-.7 9.8-5.6 11.9-3.3 1.3-4.7 1.4-10.6.2-5.8-1-7.3-1-9 .1-7.7 4.9-14.8 5.2-20.4 1-2.5-1.8-3.8-2.1-6.5-1.5-1.8.4-5.4.8-8 .9-6.2.1-10.1-3.4-10.1-8.9 0-4.8 2.8-7.5 8.4-8.2 5.3-.6 6.9-2.4 6.9-7.5 0-5.3 3.1-7.2 10-6.3 5.6.8 8-.4 8-3.7 0-1.1 1.3-3.3 2.9-4.9 2.3-2.3 3.8-2.9 7.1-2.9 3.5 0 4.8.6 7.7 3.5"/></g></svg>